<svg width="628" height="239" viewBox="0 0 628 239" fill="none" xmlns="http://www.w3.org/2000/svg">
<path d="M251.261 223.68L253.159 224.679C253.216 224.709 253.263 224.753 253.296 224.808C253.329 224.862 253.347 224.925 253.347 224.989C253.347 225.053 253.329 225.115 253.296 225.17C253.263 225.224 253.216 225.269 253.159 225.299L251.311 226.368C251.251 226.398 251.202 226.447 251.171 226.508L250.172 228.406C250.142 228.463 250.098 228.51 250.043 228.543C249.988 228.576 249.926 228.594 249.862 228.594C249.798 228.594 249.735 228.576 249.681 228.543C249.626 228.51 249.582 228.463 249.552 228.406L248.483 226.558C248.452 226.497 248.403 226.448 248.343 226.418L246.444 225.418C246.388 225.389 246.341 225.344 246.308 225.29C246.275 225.235 246.257 225.173 246.257 225.109C246.257 225.045 246.275 224.982 246.308 224.928C246.341 224.873 246.388 224.829 246.444 224.799L248.293 223.73C248.353 223.699 248.402 223.65 248.433 223.59L249.432 221.691C249.462 221.635 249.506 221.587 249.561 221.554C249.616 221.521 249.678 221.504 249.742 221.504C249.806 221.504 249.868 221.521 249.923 221.554C249.978 221.587 250.022 221.635 250.052 221.691L251.121 223.55C251.155 223.605 251.203 223.65 251.261 223.68Z" fill="white"/>
<path d="M176.657 230.076L179.894 231.755C179.988 231.807 180.066 231.883 180.121 231.975C180.175 232.067 180.204 232.172 180.204 232.279C180.204 232.386 180.175 232.492 180.121 232.584C180.066 232.676 179.988 232.752 179.894 232.804L176.757 234.583C176.656 234.64 176.576 234.727 176.527 234.832L174.858 238.07C174.804 238.152 174.729 238.22 174.642 238.267C174.555 238.314 174.458 238.338 174.359 238.338C174.26 238.338 174.162 238.314 174.075 238.267C173.988 238.22 173.914 238.152 173.859 238.07L172.04 234.912C171.981 234.814 171.894 234.734 171.791 234.683L168.503 233.074C168.421 233.019 168.353 232.945 168.306 232.858C168.259 232.77 168.235 232.673 168.235 232.574C168.235 232.475 168.259 232.378 168.306 232.291C168.353 232.203 168.421 232.129 168.503 232.075L171.661 230.246C171.759 230.187 171.842 230.105 171.9 230.006L173.569 226.758C173.621 226.665 173.697 226.587 173.789 226.532C173.882 226.478 173.987 226.449 174.094 226.449C174.201 226.449 174.306 226.478 174.398 226.532C174.491 226.587 174.567 226.665 174.618 226.758L176.447 229.916C176.502 229.986 176.575 230.041 176.657 230.076Z" fill="white"/>
<path d="M8.46317 23.2311L11.7007 24.9098C11.7944 24.9617 11.8726 25.0377 11.927 25.1299C11.9813 25.2222 12.01 25.3273 12.01 25.4344C12.01 25.5415 11.9813 25.6467 11.927 25.7389C11.8726 25.8312 11.7944 25.9072 11.7007 25.959L8.54311 27.7776C8.44439 27.8375 8.36469 27.9241 8.31328 28.0275L6.66452 31.2251C6.61267 31.3188 6.53667 31.3969 6.44441 31.4513C6.35216 31.5057 6.24701 31.5344 6.13992 31.5344C6.03282 31.5344 5.92767 31.5057 5.83542 31.4513C5.74316 31.3969 5.66716 31.3188 5.61531 31.2251L3.78668 28.0774C3.72796 27.9788 3.64552 27.8963 3.54686 27.8376L0.309294 26.2288C0.215584 26.177 0.137471 26.101 0.0830789 26.0087C0.0286866 25.9165 0 25.8113 0 25.7042C0 25.5971 0.0286866 25.492 0.0830789 25.3997C0.137471 25.3075 0.215584 25.2315 0.309294 25.1796L3.46692 23.351C3.56727 23.2978 3.64784 23.2137 3.69675 23.1112L5.37549 19.8736C5.43018 19.7912 5.50442 19.7235 5.5916 19.6767C5.67878 19.6299 5.77618 19.6055 5.87511 19.6055C5.97405 19.6055 6.07145 19.6299 6.15863 19.6767C6.24581 19.7235 6.32005 19.7912 6.37474 19.8736L8.19338 23.0312C8.26073 23.1239 8.3549 23.1936 8.46317 23.2311Z" fill="white"/>
<path d="M51.8506 196.101L53.7492 197.1C53.8057 197.13 53.853 197.174 53.886 197.229C53.9191 197.283 53.9365 197.346 53.9365 197.41C53.9365 197.474 53.9191 197.536 53.886 197.591C53.853 197.645 53.8057 197.69 53.7492 197.72L51.8506 198.719C51.7976 198.755 51.7532 198.803 51.7207 198.859L50.7214 200.767C50.6896 200.821 50.6443 200.866 50.59 200.897C50.5357 200.928 50.4742 200.944 50.4117 200.944C50.3491 200.944 50.2876 200.928 50.2333 200.897C50.179 200.866 50.1337 200.821 50.1019 200.767L49.0327 198.919C49.002 198.858 48.9531 198.809 48.8928 198.779L46.9842 197.78C46.9304 197.748 46.8857 197.702 46.8547 197.648C46.8237 197.594 46.8074 197.532 46.8074 197.47C46.8074 197.407 46.8237 197.346 46.8547 197.291C46.8857 197.237 46.9304 197.192 46.9842 197.16L48.8528 196.101C48.9131 196.07 48.9621 196.021 48.9927 195.961L49.992 194.062C50.0216 194.006 50.0661 193.958 50.1207 193.925C50.1753 193.892 50.2379 193.875 50.3017 193.875C50.3656 193.875 50.4282 193.892 50.4828 193.925C50.5374 193.958 50.5819 194.006 50.6115 194.062L51.6807 195.921C51.694 195.962 51.7161 195.999 51.7455 196.03C51.7749 196.061 51.8107 196.085 51.8506 196.101Z" fill="white"/>
<path d="M412.58 95.8263L414.478 96.8255C414.532 96.856 414.577 96.9002 414.609 96.9538C414.64 97.0073 414.656 97.0683 414.656 97.1303C414.656 97.1923 414.64 97.2533 414.609 97.3068C414.577 97.3604 414.532 97.4047 414.478 97.4351L412.63 98.5043C412.572 98.5349 412.526 98.5842 412.5 98.6442L411.501 100.543C411.47 100.597 411.426 100.642 411.372 100.673C411.319 100.704 411.258 100.721 411.196 100.721C411.134 100.721 411.073 100.704 411.019 100.673C410.966 100.642 410.921 100.597 410.891 100.543L409.822 98.6941C409.791 98.6339 409.742 98.5849 409.682 98.5542L407.783 97.555C407.729 97.5246 407.684 97.4803 407.653 97.4267C407.622 97.3732 407.605 97.3123 407.605 97.2502C407.605 97.1882 407.622 97.1273 407.653 97.0737C407.684 97.0201 407.729 96.9759 407.783 96.9454L409.632 95.8763C409.685 95.8361 409.73 95.785 409.762 95.7263L410.761 93.8378C410.791 93.7813 410.835 93.7339 410.89 93.7009C410.944 93.6679 411.007 93.6504 411.071 93.6504C411.135 93.6504 411.197 93.6679 411.252 93.7009C411.306 93.7339 411.351 93.7813 411.381 93.8378L412.45 95.6864C412.478 95.7452 412.523 95.794 412.58 95.8263Z" fill="white"/>
<path d="M397.871 147.817L399.769 148.816C399.823 148.847 399.868 148.891 399.9 148.945C399.931 148.998 399.948 149.059 399.948 149.121C399.948 149.183 399.931 149.244 399.9 149.298C399.868 149.351 399.823 149.395 399.769 149.426L397.921 150.495C397.86 150.526 397.812 150.575 397.781 150.635L396.782 152.534C396.754 152.59 396.71 152.638 396.656 152.672C396.602 152.705 396.54 152.723 396.477 152.723C396.413 152.723 396.351 152.705 396.297 152.672C396.243 152.638 396.2 152.59 396.172 152.534L395.103 150.695C395.072 150.635 395.023 150.586 394.963 150.555L393.064 149.556C393.008 149.526 392.961 149.482 392.927 149.427C392.894 149.372 392.877 149.31 392.877 149.246C392.877 149.182 392.894 149.12 392.927 149.065C392.961 149.01 393.008 148.966 393.064 148.936L394.913 147.867C394.973 147.836 395.022 147.787 395.053 147.727L396.052 145.829C396.083 145.775 396.127 145.73 396.18 145.698C396.234 145.667 396.295 145.65 396.357 145.65C396.419 145.65 396.48 145.667 396.533 145.698C396.587 145.73 396.631 145.775 396.662 145.829L397.731 147.677C397.768 147.733 397.815 147.78 397.871 147.817Z" fill="white"/>
<path d="M566.224 52.5397L568.123 53.539C568.177 53.5694 568.222 53.6137 568.253 53.6672C568.285 53.7208 568.301 53.7817 568.301 53.8438C568.301 53.9058 568.285 53.9667 568.253 54.0203C568.222 54.0738 568.177 54.1181 568.123 54.1485L566.294 55.2077C566.238 55.2439 566.191 55.2916 566.154 55.3476L565.155 57.2462C565.125 57.3003 565.08 57.3453 565.027 57.3766C564.973 57.4079 564.912 57.4244 564.85 57.4244C564.788 57.4244 564.727 57.4079 564.674 57.3766C564.62 57.3453 564.576 57.3003 564.546 57.2462L563.466 55.4076C563.429 55.3487 563.378 55.3005 563.317 55.2677L561.428 54.2684C561.374 54.238 561.329 54.1937 561.298 54.1402C561.266 54.0866 561.25 54.0257 561.25 53.9637C561.25 53.9016 561.266 53.8407 561.298 53.7871C561.329 53.7336 561.374 53.6893 561.428 53.6589L563.277 52.5897C563.335 52.5528 563.384 52.5011 563.416 52.4398L564.416 50.5512C564.446 50.4972 564.49 50.4522 564.544 50.4209C564.598 50.3896 564.658 50.373 564.72 50.373C564.783 50.373 564.843 50.3896 564.897 50.4209C564.951 50.4522 564.995 50.4972 565.025 50.5512L566.094 52.3998C566.122 52.4586 566.168 52.5074 566.224 52.5397Z" fill="white"/>
<path d="M13.4294 227.218L15.318 228.217C15.3721 228.247 15.4171 228.292 15.4484 228.345C15.4797 228.399 15.4962 228.46 15.4962 228.522C15.4962 228.584 15.4797 228.645 15.4484 228.698C15.4171 228.752 15.3721 228.796 15.318 228.827L13.4694 229.896C13.4112 229.929 13.363 229.977 13.3295 230.036L12.3303 231.934C12.2998 231.988 12.2556 232.033 12.202 232.065C12.1485 232.096 12.0875 232.112 12.0255 232.112C11.9635 232.112 11.9025 232.096 11.849 232.065C11.7954 232.033 11.7512 231.988 11.7207 231.934L10.6915 230.076C10.6581 230.017 10.6098 229.969 10.5516 229.936L8.65304 228.936C8.59898 228.906 8.55398 228.862 8.52267 228.808C8.49136 228.755 8.47485 228.694 8.47485 228.632C8.47485 228.57 8.49136 228.509 8.52267 228.455C8.55398 228.402 8.59898 228.357 8.65304 228.327L10.5016 227.258C10.5605 227.221 10.6087 227.169 10.6415 227.108L11.6408 225.219C11.6712 225.165 11.7155 225.12 11.769 225.089C11.8226 225.058 11.8835 225.041 11.9456 225.041C12.0076 225.041 12.0685 225.058 12.1221 225.089C12.1756 225.12 12.2199 225.165 12.2503 225.219L13.2796 227.078C13.3165 227.137 13.3682 227.185 13.4294 227.218Z" fill="white"/>
<path d="M623.421 1.68707L627.358 3.68557C627.471 3.74921 627.564 3.84147 627.629 3.95294C627.694 4.0644 627.728 4.19109 627.728 4.32009C627.728 4.44909 627.694 4.5758 627.629 4.68726C627.564 4.79873 627.471 4.89099 627.358 4.95463L623.531 7.2429C623.414 7.31331 623.318 7.41325 623.252 7.53269L621.253 11.4697C621.189 11.582 621.097 11.6753 620.986 11.7402C620.874 11.8051 620.747 11.8393 620.618 11.8393C620.489 11.8393 620.363 11.8051 620.251 11.7402C620.14 11.6753 620.048 11.582 619.984 11.4697L617.766 7.63262C617.695 7.51558 617.595 7.41906 617.476 7.3528L613.539 5.35432C613.424 5.29291 613.328 5.20144 613.261 5.08969C613.194 4.97793 613.158 4.85009 613.158 4.7198C613.158 4.58951 613.194 4.46165 613.261 4.3499C613.328 4.23815 613.424 4.14668 613.539 4.08527L617.366 1.86693C617.486 1.7968 617.586 1.69701 617.656 1.57716L619.654 -2.35989C619.716 -2.4748 619.807 -2.57088 619.919 -2.63786C620.031 -2.70485 620.158 -2.74023 620.289 -2.74023C620.419 -2.74023 620.547 -2.70485 620.659 -2.63786C620.77 -2.57088 620.862 -2.4748 620.923 -2.35989L623.142 1.46724C623.217 1.56036 623.313 1.63546 623.421 1.68707Z" fill="white"/>
<path d="M245.425 35.601L249.352 37.5995C249.467 37.6609 249.563 37.7523 249.63 37.8641C249.697 37.9758 249.733 38.1037 249.733 38.234C249.733 38.3643 249.697 38.4921 249.63 38.6039C249.563 38.7156 249.467 38.8071 249.352 38.8685L245.525 41.0868C245.404 41.1513 245.306 41.2528 245.245 41.3766L243.247 45.3037C243.184 45.4183 243.091 45.5139 242.979 45.5805C242.866 45.6471 242.738 45.6823 242.607 45.6823C242.477 45.6823 242.348 45.6471 242.236 45.5805C242.123 45.5139 242.031 45.4183 241.968 45.3037L239.759 41.4766C239.688 41.3565 239.584 41.2594 239.46 41.1968L235.533 39.1983C235.418 39.1354 235.322 39.0428 235.256 38.9303C235.189 38.8178 235.154 38.6895 235.154 38.5587C235.154 38.428 235.189 38.2997 235.256 38.1872C235.322 38.0747 235.418 37.9821 235.533 37.9192L239.36 35.7109C239.482 35.6421 239.579 35.5375 239.64 35.4111L241.638 31.4841C241.701 31.3694 241.793 31.2738 241.906 31.2072C242.019 31.1406 242.147 31.1055 242.278 31.1055C242.408 31.1055 242.537 31.1406 242.649 31.2072C242.762 31.2738 242.854 31.3694 242.917 31.4841L245.125 35.3112C245.195 35.4349 245.299 35.5356 245.425 35.601Z" fill="white"/>
</svg>
