<svg width="628" height="208" viewBox="0 0 628 208" fill="none" xmlns="http://www.w3.org/2000/svg">
<path d="M251.261 192.68L253.159 193.679C253.216 193.709 253.263 193.753 253.296 193.808C253.329 193.862 253.347 193.925 253.347 193.989C253.347 194.053 253.329 194.115 253.296 194.17C253.263 194.224 253.216 194.269 253.159 194.299L251.311 195.368C251.251 195.398 251.202 195.447 251.171 195.508L250.172 197.406C250.142 197.463 250.098 197.51 250.043 197.543C249.988 197.576 249.926 197.594 249.862 197.594C249.798 197.594 249.735 197.576 249.681 197.543C249.626 197.51 249.582 197.463 249.552 197.406L248.483 195.558C248.452 195.497 248.403 195.448 248.343 195.418L246.444 194.418C246.388 194.389 246.341 194.344 246.308 194.29C246.275 194.235 246.257 194.173 246.257 194.109C246.257 194.045 246.275 193.982 246.308 193.928C246.341 193.873 246.388 193.829 246.444 193.799L248.293 192.73C248.353 192.699 248.402 192.65 248.433 192.59L249.432 190.691C249.462 190.635 249.506 190.587 249.561 190.554C249.616 190.521 249.678 190.504 249.742 190.504C249.806 190.504 249.868 190.521 249.923 190.554C249.978 190.587 250.022 190.635 250.052 190.691L251.121 192.55C251.155 192.605 251.203 192.65 251.261 192.68Z" fill="white"/>
<path d="M176.657 199.076L179.894 200.755C179.988 200.807 180.066 200.883 180.121 200.975C180.175 201.067 180.204 201.172 180.204 201.279C180.204 201.386 180.175 201.492 180.121 201.584C180.066 201.676 179.988 201.752 179.894 201.804L176.757 203.583C176.656 203.64 176.576 203.727 176.527 203.832L174.858 207.07C174.804 207.152 174.729 207.22 174.642 207.267C174.555 207.314 174.458 207.338 174.359 207.338C174.26 207.338 174.162 207.314 174.075 207.267C173.988 207.22 173.914 207.152 173.859 207.07L172.04 203.912C171.981 203.814 171.894 203.734 171.791 203.683L168.503 202.074C168.421 202.019 168.353 201.945 168.306 201.858C168.259 201.77 168.235 201.673 168.235 201.574C168.235 201.475 168.259 201.378 168.306 201.291C168.353 201.203 168.421 201.129 168.503 201.075L171.661 199.246C171.759 199.187 171.842 199.105 171.9 199.006L173.569 195.758C173.621 195.665 173.697 195.587 173.789 195.532C173.882 195.478 173.987 195.449 174.094 195.449C174.201 195.449 174.306 195.478 174.398 195.532C174.491 195.587 174.567 195.665 174.618 195.758L176.447 198.916C176.502 198.986 176.575 199.041 176.657 199.076Z" fill="white"/>
<path d="M8.46317 -7.76893L11.7007 -6.0902C11.7944 -6.03835 11.8726 -5.96234 11.927 -5.87008C11.9813 -5.77783 12.01 -5.67269 12.01 -5.5656C12.01 -5.4585 11.9813 -5.35333 11.927 -5.26108C11.8726 -5.16882 11.7944 -5.09281 11.7007 -5.04096L8.54311 -3.22235C8.44439 -3.16252 8.36469 -3.07589 8.31328 -2.97254L6.66452 0.22507C6.61267 0.318781 6.53667 0.396888 6.44441 0.45128C6.35216 0.505672 6.24701 0.534378 6.13992 0.534378C6.03282 0.534378 5.92767 0.505672 5.83542 0.45128C5.74316 0.396888 5.66716 0.318781 5.61531 0.22507L3.78668 -2.92256C3.72796 -3.02122 3.64552 -3.10368 3.54686 -3.1624L0.309294 -4.77118C0.215584 -4.82303 0.137471 -4.89903 0.0830789 -4.99129C0.0286866 -5.08355 0 -5.18868 0 -5.29578C0 -5.40288 0.0286866 -5.50801 0.0830789 -5.60027C0.137471 -5.69252 0.215584 -5.76853 0.309294 -5.82038L3.46692 -7.64902C3.56727 -7.70225 3.64784 -7.78631 3.69675 -7.88883L5.37549 -11.1264C5.43018 -11.2088 5.50442 -11.2765 5.5916 -11.3233C5.67878 -11.3701 5.77618 -11.3945 5.87511 -11.3945C5.97405 -11.3945 6.07145 -11.3701 6.15863 -11.3233C6.24581 -11.2765 6.32005 -11.2088 6.37474 -11.1264L8.19338 -7.96879C8.26073 -7.87613 8.3549 -7.80636 8.46317 -7.76893Z" fill="white"/>
<path d="M51.8506 165.101L53.7491 166.1C53.8057 166.13 53.853 166.174 53.886 166.229C53.919 166.283 53.9365 166.346 53.9365 166.41C53.9365 166.474 53.919 166.536 53.886 166.591C53.853 166.645 53.8057 166.69 53.7491 166.72L51.8506 167.719C51.7975 167.755 51.7532 167.803 51.7207 167.859L50.7214 169.767C50.6896 169.821 50.6443 169.866 50.59 169.897C50.5357 169.928 50.4742 169.944 50.4116 169.944C50.3491 169.944 50.2876 169.928 50.2333 169.897C50.179 169.866 50.1337 169.821 50.1019 169.767L49.0327 167.919C49.002 167.858 48.953 167.809 48.8928 167.779L46.9842 166.78C46.9303 166.748 46.8857 166.702 46.8547 166.648C46.8237 166.594 46.8074 166.532 46.8074 166.47C46.8074 166.407 46.8237 166.346 46.8547 166.291C46.8857 166.237 46.9303 166.192 46.9842 166.16L48.8528 165.101C48.9131 165.07 48.962 165.021 48.9927 164.961L49.9919 163.062C50.0216 163.006 50.0661 162.958 50.1207 162.925C50.1753 162.892 50.2379 162.875 50.3017 162.875C50.3655 162.875 50.4281 162.892 50.4827 162.925C50.5373 162.958 50.5819 163.006 50.6115 163.062L51.6807 164.921C51.694 164.962 51.7161 164.999 51.7455 165.03C51.7748 165.061 51.8107 165.085 51.8506 165.101Z" fill="white"/>
<path d="M412.58 64.8263L414.478 65.8255C414.532 65.856 414.577 65.9002 414.609 65.9538C414.64 66.0073 414.656 66.0683 414.656 66.1303C414.656 66.1923 414.64 66.2533 414.609 66.3068C414.577 66.3604 414.532 66.4047 414.478 66.4351L412.63 67.5043C412.572 67.5349 412.526 67.5842 412.5 67.6442L411.501 69.5427C411.47 69.5968 411.426 69.6418 411.372 69.6731C411.319 69.7044 411.258 69.7209 411.196 69.7209C411.134 69.7209 411.073 69.7044 411.019 69.6731C410.966 69.6418 410.921 69.5968 410.891 69.5427L409.822 67.6941C409.791 67.6339 409.742 67.5849 409.682 67.5542L407.783 66.555C407.729 66.5246 407.684 66.4803 407.653 66.4267C407.622 66.3732 407.605 66.3123 407.605 66.2502C407.605 66.1882 407.622 66.1273 407.653 66.0737C407.684 66.0201 407.729 65.9759 407.783 65.9454L409.632 64.8763C409.685 64.8361 409.73 64.785 409.762 64.7263L410.761 62.8378C410.791 62.7813 410.835 62.7339 410.89 62.7009C410.944 62.6679 411.007 62.6504 411.071 62.6504C411.135 62.6504 411.197 62.6679 411.252 62.7009C411.306 62.7339 411.351 62.7813 411.381 62.8378L412.45 64.6864C412.478 64.7452 412.523 64.794 412.58 64.8263Z" fill="white"/>
<path d="M397.871 116.817L399.769 117.816C399.823 117.847 399.868 117.891 399.9 117.945C399.931 117.998 399.947 118.059 399.947 118.121C399.947 118.183 399.931 118.244 399.9 118.298C399.868 118.351 399.823 118.395 399.769 118.426L397.921 119.495C397.86 119.526 397.811 119.575 397.781 119.635L396.782 121.534C396.754 121.59 396.71 121.638 396.656 121.672C396.602 121.705 396.54 121.723 396.477 121.723C396.413 121.723 396.351 121.705 396.297 121.672C396.243 121.638 396.2 121.59 396.172 121.534L395.103 119.695C395.072 119.635 395.023 119.586 394.963 119.555L393.064 118.556C393.008 118.526 392.96 118.482 392.927 118.427C392.894 118.372 392.877 118.31 392.877 118.246C392.877 118.182 392.894 118.12 392.927 118.065C392.96 118.01 393.008 117.966 393.064 117.936L394.913 116.867C394.973 116.836 395.022 116.787 395.053 116.727L396.052 114.829C396.083 114.775 396.127 114.73 396.18 114.698C396.234 114.667 396.295 114.65 396.357 114.65C396.419 114.65 396.48 114.667 396.533 114.698C396.587 114.73 396.631 114.775 396.662 114.829L397.731 116.677C397.768 116.733 397.815 116.78 397.871 116.817Z" fill="white"/>
<path d="M566.224 21.5397L568.123 22.539C568.177 22.5694 568.222 22.6137 568.253 22.6672C568.285 22.7208 568.301 22.7817 568.301 22.8438C568.301 22.9058 568.285 22.9667 568.253 23.0203C568.222 23.0738 568.177 23.1181 568.123 23.1485L566.294 24.2077C566.238 24.2439 566.191 24.2916 566.154 24.3476L565.155 26.2462C565.125 26.3003 565.08 26.3453 565.027 26.3766C564.973 26.4079 564.912 26.4244 564.85 26.4244C564.788 26.4244 564.727 26.4079 564.674 26.3766C564.62 26.3453 564.576 26.3003 564.546 26.2462L563.466 24.4076C563.429 24.3487 563.378 24.3005 563.317 24.2677L561.428 23.2684C561.374 23.238 561.329 23.1937 561.298 23.1402C561.266 23.0866 561.25 23.0257 561.25 22.9637C561.25 22.9016 561.266 22.8407 561.298 22.7871C561.329 22.7336 561.374 22.6893 561.428 22.6589L563.277 21.5897C563.335 21.5528 563.384 21.5011 563.416 21.4398L564.416 19.5512C564.446 19.4972 564.49 19.4522 564.544 19.4209C564.598 19.3896 564.658 19.373 564.72 19.373C564.783 19.373 564.843 19.3896 564.897 19.4209C564.951 19.4522 564.995 19.4972 565.025 19.5512L566.094 21.3998C566.122 21.4586 566.168 21.5074 566.224 21.5397Z" fill="white"/>
<path d="M13.4294 196.218L15.318 197.217C15.3721 197.247 15.4171 197.292 15.4484 197.345C15.4797 197.399 15.4962 197.46 15.4962 197.522C15.4962 197.584 15.4797 197.645 15.4484 197.698C15.4171 197.752 15.3721 197.796 15.318 197.827L13.4694 198.896C13.4112 198.929 13.363 198.977 13.3295 199.036L12.3303 200.934C12.2998 200.988 12.2556 201.033 12.202 201.065C12.1485 201.096 12.0875 201.112 12.0255 201.112C11.9635 201.112 11.9025 201.096 11.849 201.065C11.7954 201.033 11.7512 200.988 11.7207 200.934L10.6915 199.076C10.6581 199.017 10.6098 198.969 10.5516 198.936L8.65304 197.936C8.59898 197.906 8.55398 197.862 8.52267 197.808C8.49136 197.755 8.47485 197.694 8.47485 197.632C8.47485 197.57 8.49136 197.509 8.52267 197.455C8.55398 197.402 8.59898 197.357 8.65304 197.327L10.5016 196.258C10.5605 196.221 10.6087 196.169 10.6415 196.108L11.6408 194.219C11.6712 194.165 11.7155 194.12 11.769 194.089C11.8226 194.058 11.8835 194.041 11.9456 194.041C12.0076 194.041 12.0685 194.058 12.1221 194.089C12.1756 194.12 12.2199 194.165 12.2503 194.219L13.2796 196.078C13.3165 196.137 13.3682 196.185 13.4294 196.218Z" fill="white"/>
<path d="M245.425 4.60096L249.352 6.59946C249.467 6.66088 249.563 6.75234 249.63 6.8641C249.697 6.97585 249.733 7.1037 249.733 7.234C249.733 7.36429 249.697 7.49211 249.63 7.60387C249.563 7.71562 249.467 7.80709 249.352 7.8685L245.525 10.0868C245.404 10.1513 245.306 10.2528 245.245 10.3766L243.247 14.3037C243.184 14.4183 243.091 14.5139 242.979 14.5805C242.866 14.6471 242.738 14.6823 242.607 14.6823C242.477 14.6823 242.348 14.6471 242.236 14.5805C242.123 14.5139 242.031 14.4183 241.968 14.3037L239.759 10.4766C239.688 10.3565 239.584 10.2594 239.46 10.1968L235.533 8.19827C235.418 8.13538 235.322 8.04282 235.256 7.93031C235.189 7.81781 235.154 7.68948 235.154 7.55873C235.154 7.42799 235.189 7.29966 235.256 7.18716C235.322 7.07465 235.418 6.98212 235.533 6.91923L239.36 4.71087C239.482 4.64214 239.579 4.53746 239.64 4.4111L241.638 0.48406C241.701 0.369438 241.793 0.27383 241.906 0.20723C242.018 0.140629 242.147 0.105469 242.278 0.105469C242.408 0.105469 242.537 0.140629 242.649 0.20723C242.762 0.27383 242.854 0.369438 242.917 0.48406L245.125 4.31117C245.195 4.43488 245.299 4.53559 245.425 4.60096Z" fill="white"/>
</svg>
