<svg width="628" height="295" viewBox="0 0 628 295" fill="none" xmlns="http://www.w3.org/2000/svg">
<path d="M251.261 279.68L253.159 280.679C253.216 280.709 253.263 280.753 253.296 280.808C253.329 280.862 253.347 280.925 253.347 280.989C253.347 281.053 253.329 281.115 253.296 281.17C253.263 281.224 253.216 281.269 253.159 281.299L251.311 282.368C251.251 282.398 251.202 282.447 251.171 282.508L250.172 284.406C250.142 284.463 250.098 284.51 250.043 284.543C249.988 284.576 249.926 284.594 249.862 284.594C249.798 284.594 249.735 284.576 249.681 284.543C249.626 284.51 249.582 284.463 249.552 284.406L248.483 282.558C248.452 282.497 248.403 282.448 248.343 282.418L246.444 281.418C246.388 281.389 246.341 281.344 246.308 281.29C246.275 281.235 246.257 281.173 246.257 281.109C246.257 281.045 246.275 280.982 246.308 280.928C246.341 280.873 246.388 280.829 246.444 280.799L248.293 279.73C248.353 279.699 248.402 279.65 248.433 279.59L249.432 277.691C249.462 277.635 249.506 277.587 249.561 277.554C249.616 277.521 249.678 277.504 249.742 277.504C249.806 277.504 249.868 277.521 249.923 277.554C249.978 277.587 250.022 277.635 250.052 277.691L251.121 279.55C251.155 279.605 251.203 279.65 251.261 279.68Z" fill="white"/>
<path d="M176.657 286.076L179.894 287.755C179.988 287.807 180.066 287.883 180.121 287.975C180.175 288.067 180.204 288.172 180.204 288.279C180.204 288.386 180.175 288.492 180.121 288.584C180.066 288.676 179.988 288.752 179.894 288.804L176.757 290.583C176.656 290.64 176.576 290.727 176.527 290.832L174.858 294.07C174.804 294.152 174.729 294.22 174.642 294.267C174.555 294.314 174.458 294.338 174.359 294.338C174.26 294.338 174.162 294.314 174.075 294.267C173.988 294.22 173.914 294.152 173.859 294.07L172.04 290.912C171.981 290.814 171.894 290.734 171.791 290.683L168.503 289.074C168.421 289.019 168.353 288.945 168.306 288.858C168.259 288.77 168.235 288.673 168.235 288.574C168.235 288.475 168.259 288.378 168.306 288.291C168.353 288.203 168.421 288.129 168.503 288.075L171.661 286.246C171.759 286.187 171.842 286.105 171.9 286.006L173.569 282.758C173.621 282.665 173.697 282.587 173.789 282.532C173.882 282.478 173.987 282.449 174.094 282.449C174.201 282.449 174.306 282.478 174.398 282.532C174.491 282.587 174.567 282.665 174.618 282.758L176.447 285.916C176.502 285.986 176.575 286.041 176.657 286.076Z" fill="white"/>
<path d="M8.46317 79.2311L11.7007 80.9098C11.7944 80.9617 11.8726 81.0377 11.927 81.1299C11.9813 81.2222 12.01 81.3273 12.01 81.4344C12.01 81.5415 11.9813 81.6467 11.927 81.7389C11.8726 81.8312 11.7944 81.9072 11.7007 81.959L8.54311 83.7776C8.44439 83.8375 8.36469 83.9241 8.31328 84.0275L6.66452 87.2251C6.61267 87.3188 6.53667 87.3969 6.44441 87.4513C6.35216 87.5057 6.24701 87.5344 6.13992 87.5344C6.03282 87.5344 5.92767 87.5057 5.83542 87.4513C5.74316 87.3969 5.66716 87.3188 5.61531 87.2251L3.78668 84.0774C3.72796 83.9788 3.64552 83.8963 3.54686 83.8376L0.309294 82.2288C0.215584 82.177 0.137471 82.101 0.0830789 82.0087C0.0286866 81.9165 0 81.8113 0 81.7042C0 81.5971 0.0286866 81.492 0.0830789 81.3997C0.137471 81.3075 0.215584 81.2315 0.309294 81.1796L3.46692 79.351C3.56727 79.2978 3.64784 79.2137 3.69675 79.1112L5.37549 75.8736C5.43018 75.7912 5.50442 75.7235 5.5916 75.6767C5.67878 75.6299 5.77618 75.6055 5.87511 75.6055C5.97405 75.6055 6.07145 75.6299 6.15863 75.6767C6.24581 75.7235 6.32005 75.7912 6.37474 75.8736L8.19338 79.0312C8.26073 79.1239 8.3549 79.1936 8.46317 79.2311Z" fill="white"/>
<path d="M51.8506 252.101L53.7492 253.1C53.8057 253.13 53.8531 253.174 53.8861 253.229C53.9191 253.283 53.9366 253.346 53.9366 253.41C53.9366 253.474 53.9191 253.536 53.8861 253.591C53.8531 253.645 53.8057 253.69 53.7492 253.72L51.8506 254.719C51.7976 254.755 51.7532 254.803 51.7207 254.859L50.7215 256.767C50.6897 256.821 50.6444 256.866 50.59 256.897C50.5357 256.928 50.4742 256.944 50.4117 256.944C50.3491 256.944 50.2877 256.928 50.2334 256.897C50.179 256.866 50.1337 256.821 50.1019 256.767L49.0327 254.919C49.0021 254.858 48.9531 254.809 48.8928 254.779L46.9843 253.78C46.9304 253.748 46.8858 253.702 46.8548 253.648C46.8237 253.594 46.8074 253.532 46.8074 253.47C46.8074 253.407 46.8237 253.346 46.8548 253.291C46.8858 253.237 46.9304 253.192 46.9843 253.16L48.8529 252.101C48.9131 252.07 48.9621 252.021 48.9928 251.961L49.992 250.062C50.0216 250.006 50.0662 249.958 50.1208 249.925C50.1754 249.892 50.238 249.875 50.3018 249.875C50.3656 249.875 50.4282 249.892 50.4828 249.925C50.5374 249.958 50.5819 250.006 50.6115 250.062L51.6807 251.921C51.694 251.962 51.7162 251.999 51.7455 252.03C51.7749 252.061 51.8108 252.085 51.8506 252.101Z" fill="white"/>
<path d="M69.3175 25.0509L71.2161 26.0501C71.2726 26.0798 71.3199 26.1243 71.3529 26.1789C71.386 26.2335 71.4034 26.2961 71.4034 26.3599C71.4034 26.4237 71.386 26.4863 71.3529 26.5409C71.3199 26.5955 71.2726 26.64 71.2161 26.6697L69.3574 27.7389C69.302 27.7726 69.257 27.821 69.2275 27.8788L68.2283 29.7773C68.1987 29.8339 68.1542 29.8812 68.0996 29.9142C68.0449 29.9473 67.9823 29.9647 67.9185 29.9647C67.8547 29.9647 67.7921 29.9473 67.7375 29.9142C67.6829 29.8812 67.6384 29.8339 67.6088 29.7773L66.5396 27.9187C66.5059 27.8633 66.4574 27.8183 66.3997 27.7888L64.5011 26.7896C64.4446 26.76 64.3972 26.7154 64.3642 26.6608C64.3312 26.6062 64.3137 26.5436 64.3137 26.4798C64.3137 26.416 64.3312 26.3534 64.3642 26.2988C64.3972 26.2442 64.4446 26.1997 64.5011 26.17L66.3497 25.1009C66.41 25.0702 66.4589 25.0212 66.4896 24.961L67.4889 23.0624C67.5185 23.0059 67.563 22.9585 67.6176 22.9255C67.6722 22.8925 67.7348 22.875 67.7986 22.875C67.8624 22.875 67.925 22.8925 67.9796 22.9255C68.0342 22.9585 68.0788 23.0059 68.1084 23.0624L69.1776 24.911C69.2083 24.9712 69.2572 25.0202 69.3175 25.0509Z" fill="white"/>
<path d="M412.58 151.826L414.478 152.826C414.532 152.856 414.577 152.9 414.609 152.954C414.64 153.007 414.656 153.068 414.656 153.13C414.656 153.192 414.64 153.253 414.609 153.307C414.577 153.36 414.532 153.405 414.478 153.435L412.63 154.504C412.572 154.535 412.526 154.584 412.5 154.644L411.501 156.543C411.47 156.597 411.426 156.642 411.372 156.673C411.319 156.704 411.258 156.721 411.196 156.721C411.134 156.721 411.073 156.704 411.019 156.673C410.966 156.642 410.921 156.597 410.891 156.543L409.822 154.694C409.791 154.634 409.742 154.585 409.682 154.554L407.783 153.555C407.729 153.525 407.684 153.48 407.653 153.427C407.622 153.373 407.605 153.312 407.605 153.25C407.605 153.188 407.622 153.127 407.653 153.074C407.684 153.02 407.729 152.976 407.783 152.945L409.632 151.876C409.685 151.836 409.73 151.785 409.762 151.726L410.761 149.838C410.791 149.781 410.835 149.734 410.89 149.701C410.944 149.668 411.007 149.65 411.071 149.65C411.135 149.65 411.197 149.668 411.252 149.701C411.306 149.734 411.351 149.781 411.381 149.838L412.45 151.686C412.478 151.745 412.523 151.794 412.58 151.826Z" fill="white"/>
<path d="M397.871 203.817L399.769 204.816C399.823 204.847 399.868 204.891 399.9 204.945C399.931 204.998 399.947 205.059 399.947 205.121C399.947 205.183 399.931 205.244 399.9 205.298C399.868 205.351 399.823 205.395 399.769 205.426L397.921 206.495C397.86 206.526 397.811 206.575 397.781 206.635L396.782 208.534C396.754 208.59 396.71 208.638 396.656 208.672C396.602 208.705 396.54 208.723 396.477 208.723C396.413 208.723 396.351 208.705 396.297 208.672C396.243 208.638 396.2 208.59 396.172 208.534L395.103 206.695C395.072 206.635 395.023 206.586 394.963 206.555L393.064 205.556C393.008 205.526 392.96 205.482 392.927 205.427C392.894 205.372 392.877 205.31 392.877 205.246C392.877 205.182 392.894 205.12 392.927 205.065C392.96 205.01 393.008 204.966 393.064 204.936L394.913 203.867C394.973 203.836 395.022 203.787 395.053 203.727L396.052 201.829C396.083 201.775 396.127 201.73 396.18 201.698C396.234 201.667 396.295 201.65 396.357 201.65C396.419 201.65 396.48 201.667 396.533 201.698C396.587 201.73 396.631 201.775 396.662 201.829L397.731 203.677C397.768 203.733 397.815 203.78 397.871 203.817Z" fill="white"/>
<path d="M566.224 108.54L568.123 109.539C568.177 109.569 568.222 109.614 568.253 109.667C568.285 109.721 568.301 109.782 568.301 109.844C568.301 109.906 568.285 109.967 568.253 110.02C568.222 110.074 568.177 110.118 568.123 110.149L566.294 111.208C566.238 111.244 566.191 111.292 566.154 111.348L565.155 113.246C565.125 113.3 565.08 113.345 565.027 113.377C564.973 113.408 564.912 113.424 564.85 113.424C564.788 113.424 564.727 113.408 564.674 113.377C564.62 113.345 564.576 113.3 564.546 113.246L563.466 111.408C563.429 111.349 563.378 111.3 563.317 111.268L561.428 110.268C561.374 110.238 561.329 110.194 561.298 110.14C561.266 110.087 561.25 110.026 561.25 109.964C561.25 109.902 561.266 109.841 561.298 109.787C561.329 109.734 561.374 109.689 561.428 109.659L563.277 108.59C563.335 108.553 563.384 108.501 563.416 108.44L564.416 106.551C564.446 106.497 564.49 106.452 564.544 106.421C564.598 106.39 564.658 106.373 564.72 106.373C564.783 106.373 564.843 106.39 564.897 106.421C564.951 106.452 564.995 106.497 565.025 106.551L566.094 108.4C566.122 108.459 566.168 108.507 566.224 108.54Z" fill="white"/>
<path d="M13.4294 283.218L15.318 284.217C15.3721 284.247 15.4171 284.292 15.4484 284.345C15.4797 284.399 15.4962 284.46 15.4962 284.522C15.4962 284.584 15.4797 284.645 15.4484 284.698C15.4171 284.752 15.3721 284.796 15.318 284.827L13.4694 285.896C13.4112 285.929 13.363 285.977 13.3295 286.036L12.3303 287.934C12.2998 287.988 12.2556 288.033 12.202 288.065C12.1485 288.096 12.0875 288.112 12.0255 288.112C11.9635 288.112 11.9025 288.096 11.849 288.065C11.7954 288.033 11.7512 287.988 11.7207 287.934L10.6915 286.076C10.6581 286.017 10.6098 285.969 10.5516 285.936L8.65304 284.936C8.59898 284.906 8.55398 284.862 8.52267 284.808C8.49136 284.755 8.47485 284.694 8.47485 284.632C8.47485 284.57 8.49136 284.509 8.52267 284.455C8.55398 284.402 8.59898 284.357 8.65304 284.327L10.5016 283.258C10.5605 283.221 10.6087 283.169 10.6415 283.108L11.6408 281.219C11.6712 281.165 11.7155 281.12 11.769 281.089C11.8226 281.058 11.8835 281.041 11.9456 281.041C12.0076 281.041 12.0685 281.058 12.1221 281.089C12.1756 281.12 12.2199 281.165 12.2503 281.219L13.2796 283.078C13.3165 283.137 13.3682 283.185 13.4294 283.218Z" fill="white"/>
<path d="M623.421 57.6871L627.358 59.6856C627.471 59.7492 627.564 59.8415 627.629 59.9529C627.694 60.0644 627.728 60.1911 627.728 60.3201C627.728 60.4491 627.694 60.5758 627.629 60.6873C627.564 60.7987 627.471 60.891 627.358 60.9546L623.531 63.2429C623.414 63.3133 623.318 63.4132 623.252 63.5327L621.253 67.4697C621.189 67.582 621.097 67.6753 620.986 67.7402C620.874 67.8051 620.747 67.8393 620.618 67.8393C620.489 67.8393 620.363 67.8051 620.251 67.7402C620.14 67.6753 620.048 67.582 619.984 67.4697L617.766 63.6326C617.695 63.5156 617.595 63.4191 617.476 63.3528L613.539 61.3543C613.424 61.2929 613.328 61.2014 613.261 61.0897C613.194 60.9779 613.158 60.8501 613.158 60.7198C613.158 60.5895 613.194 60.4617 613.261 60.3499C613.328 60.2381 613.424 60.1467 613.539 60.0853L617.366 57.8669C617.486 57.7968 617.586 57.697 617.656 57.5772L619.654 53.6401C619.716 53.5252 619.807 53.4291 619.919 53.3621C620.031 53.2952 620.158 53.2598 620.289 53.2598C620.419 53.2598 620.547 53.2952 620.659 53.3621C620.77 53.4291 620.862 53.5252 620.923 53.6401L623.142 57.4672C623.217 57.5604 623.313 57.6355 623.421 57.6871Z" fill="white"/>
<path d="M512.784 4.48725L516.712 6.48575C516.826 6.54863 516.922 6.64118 516.988 6.75369C517.055 6.86619 517.09 6.99452 517.09 7.12526C517.09 7.25601 517.055 7.38435 516.988 7.49686C516.922 7.60936 516.826 7.7019 516.712 7.76478L512.884 9.97313C512.762 10.0419 512.665 10.1466 512.605 10.2729L510.606 14.2C510.543 14.3146 510.451 14.4102 510.338 14.4768C510.226 14.5434 510.097 14.5785 509.967 14.5785C509.836 14.5785 509.707 14.5434 509.595 14.4768C509.482 14.4102 509.39 14.3146 509.327 14.2L507.119 10.3728C507.05 10.2509 506.945 10.1532 506.819 10.093L502.892 8.09454C502.777 8.03165 502.682 7.93912 502.615 7.82661C502.548 7.71411 502.513 7.58576 502.513 7.45502C502.513 7.32428 502.548 7.19595 502.615 7.08344C502.682 6.97093 502.777 6.87839 502.892 6.8155L506.719 4.60717C506.839 4.53605 506.936 4.43201 506.999 4.30739L508.997 0.38033C509.059 0.26542 509.15 0.169342 509.262 0.102355C509.374 0.0353693 509.502 0 509.632 0C509.762 0 509.89 0.0353693 510.002 0.102355C510.113 0.169342 510.205 0.26542 510.266 0.38033L512.485 4.20746C512.555 4.32819 512.659 4.42552 512.784 4.48725Z" fill="white"/>
<path d="M245.425 91.601L249.352 93.5995C249.467 93.6609 249.563 93.7523 249.63 93.8641C249.697 93.9758 249.733 94.1037 249.733 94.234C249.733 94.3643 249.697 94.4921 249.63 94.6039C249.563 94.7156 249.467 94.8071 249.352 94.8685L245.525 97.0868C245.404 97.1513 245.306 97.2528 245.245 97.3766L243.247 101.304C243.184 101.418 243.091 101.514 242.979 101.581C242.866 101.647 242.738 101.682 242.607 101.682C242.477 101.682 242.348 101.647 242.236 101.581C242.123 101.514 242.031 101.418 241.968 101.304L239.759 97.4766C239.688 97.3565 239.584 97.2594 239.46 97.1968L235.533 95.1983C235.418 95.1354 235.322 95.0428 235.256 94.9303C235.189 94.8178 235.154 94.6895 235.154 94.5587C235.154 94.428 235.189 94.2997 235.256 94.1872C235.322 94.0747 235.418 93.9821 235.533 93.9192L239.36 91.7109C239.482 91.6421 239.579 91.5375 239.64 91.4111L241.638 87.4841C241.701 87.3694 241.793 87.2738 241.906 87.2072C242.018 87.1406 242.147 87.1055 242.278 87.1055C242.408 87.1055 242.537 87.1406 242.649 87.2072C242.762 87.2738 242.854 87.3694 242.917 87.4841L245.125 91.3112C245.195 91.4349 245.299 91.5356 245.425 91.601Z" fill="white"/>
</svg>
