<svg width="218" height="70" viewBox="0 0 218 70" fill="none" xmlns="http://www.w3.org/2000/svg">
<path fill-rule="evenodd" clip-rule="evenodd" d="M20.4065 0.162432C10.5243 1.8234 2.68465 9.16715 0.489329 18.8197C-0.501049 23.1734 0.0528069 29.4603 1.78116 33.4892C3.40904 37.2843 4.2738 38.2634 19.6381 53.7055C29.8525 63.9716 35.1233 69.0633 35.9227 69.4368C37.6588 70.2481 40.0424 70.1772 41.8496 69.261C42.9423 68.7068 47.0158 64.8071 57.9797 53.8187C70.9551 40.814 72.8058 38.8448 74.0181 36.7532C76.7643 32.015 77.5922 28.5843 77.3696 22.866C77.1994 18.4914 76.6331 16.2771 74.7611 12.6661C72.4547 8.21667 68.6368 4.54066 64.0227 2.32583C60.7788 0.768894 58.6736 0.247845 54.8377 0.0524882C49.6391 -0.212617 44.7176 1.03814 40.6042 3.66939C38.7644 4.84626 38.9403 4.86369 36.3542 3.24971C34.411 2.03679 31.3287 0.869675 28.7802 0.382319C26.7306 -0.00987181 22.1473 -0.130159 20.4065 0.162432ZM58.3843 4.56283C61.223 5.23845 64.6836 7.10364 66.9495 9.17838C70.9973 12.8854 73.2181 17.5663 73.5121 23.0103C73.7116 26.707 73.1241 29.449 71.3591 33.0589L69.9863 35.8666L55.0233 50.8661C40.3293 65.5965 40.0394 65.866 38.8971 65.8651C37.3476 65.8643 36.366 64.959 36.366 63.5303C36.366 62.5544 36.8732 61.9725 43.6069 55.219C49.8554 48.9522 50.8478 47.8347 50.8478 47.0663C50.8478 45.8723 50.3108 45.2239 49.1289 44.9916C48.1702 44.8033 47.9926 44.9549 40.8536 52.0625C36.3371 56.559 33.261 59.3983 32.7775 59.5159C31.1585 59.9102 29.2484 57.9779 29.7694 56.4727C29.8664 56.1928 33.1857 52.6991 37.1457 48.7092C43.5413 42.2654 44.3458 41.3489 44.3458 40.5078C44.3458 39.3419 43.4494 38.3787 42.3645 38.3787C41.7151 38.3787 40.1928 39.7471 34.2437 45.6787C27.4757 52.4269 26.8444 52.9787 25.8892 52.9787C24.457 52.9787 23.362 51.9162 23.362 50.5263C23.362 49.5504 23.8691 48.9684 30.6029 42.2149C37.1959 35.6026 37.8438 34.8635 37.8438 33.9552C37.8438 32.6856 37.1144 31.8767 35.97 31.8767C35.1951 31.8767 34.0915 32.8543 27.7952 39.1176C20.8959 45.9805 20.4585 46.3585 19.4135 46.3585C17.9097 46.3585 16.86 45.3087 16.86 43.8055C16.86 42.7755 17.1824 42.3792 21.7991 37.7335C26.0781 33.4277 26.861 32.7633 27.6572 32.7633C29.9902 32.7633 31.3355 31.929 35.339 27.9994L39.1885 24.2211L40.0799 24.9189C42.8852 27.1142 47.1981 28.3591 49.9526 27.7686C52.4923 27.2239 55.3198 25.4816 56.1343 23.959C56.7718 22.7682 55.6434 21.237 54.1287 21.237C53.7986 21.237 53.0733 21.6363 52.5174 22.1245C49.4413 24.8255 46.0408 24.4676 41.7113 20.9875C40.6686 20.1494 39.6292 19.4637 39.4013 19.4637C38.5336 19.4637 37.568 20.251 33.4106 24.35C28.8399 28.8559 28.2078 29.2306 25.9072 28.7991C24.7129 28.5751 22.9568 27.4517 22.8383 26.8361C22.7065 26.1519 41.1855 7.99649 43.2399 6.79155C47.8968 4.0604 53.0742 3.29848 58.3843 4.56283ZM28.8692 4.5315C30.9454 5.02122 33.6154 6.1443 34.9329 7.08236L35.8355 7.72518L27.5611 16.0327C23.01 20.6019 19.1395 24.6307 18.9598 24.9857C18.0726 26.7392 19.0346 29.5625 20.984 30.9274L22.129 31.7289L18.0755 35.8666C15.8462 38.1423 13.8259 40.3175 13.5862 40.7005C13.1506 41.3959 13.1479 41.3942 10.2861 38.4124C7.05696 35.0482 5.36378 32.083 4.59211 28.4401C3.46873 23.1379 4.559 17.2521 7.44413 13.0438C10.3801 8.76166 14.7119 5.70659 19.495 4.54509C21.701 4.00956 26.6254 4.00247 28.8692 4.5315Z" fill="#FF4444"/>
<path fill-rule="evenodd" clip-rule="evenodd" d="M97.924 16.6869C97.924 25.8649 97.8249 34.9956 97.7035 36.9773C97.4877 40.5041 97.4986 40.5809 98.2077 40.5809H98.9324L99.02 22.775L99.1076 4.96947L108.407 16.8982C113.522 23.4591 119.737 31.4336 122.217 34.6195C124.782 37.9137 127.007 40.4585 127.375 40.52C128.006 40.6252 128.021 40.1331 128.021 20.3141C128.021 2.48254 127.96 0 127.514 0C127.071 0 127.007 1.91643 127.007 15.2178C127.007 23.5876 126.893 30.4309 126.753 30.4255C126.614 30.4198 121.097 23.5782 114.495 15.2219L102.489 0.0284117L100.207 0.0142007L97.924 0V16.6869ZM216.454 0.632724C215.04 1.51062 214.04 2.66819 213.427 4.13654C212.977 5.21261 212.903 7.86795 212.903 22.985V40.5809H215.27H217.638V20.2904C217.638 9.1307 217.6 0.000675605 217.553 0.00135195C217.506 0.0020283 217.012 0.286096 216.454 0.632724ZM169.404 9.19191C168.123 9.52501 166.278 11.3342 166.025 12.5053C165.666 14.1654 165.618 14.2033 163.878 14.2033C162.609 14.2033 162.177 14.3291 162.177 14.6991C162.177 15.0372 162.705 15.2645 163.843 15.4153L165.508 15.6365L165.618 25.9951C165.728 36.326 165.73 36.3578 166.573 37.8471C167.675 39.7943 169.411 40.6959 172.381 40.8643C174.271 40.9718 174.953 40.848 176.583 40.102C177.872 39.5116 178.414 39.098 178.192 38.8751C177.968 38.6519 177.354 38.7155 176.368 39.0635C173.79 39.9732 171.645 38.9735 170.971 36.5478C170.784 35.8759 170.634 30.9659 170.633 25.4912L170.631 15.6433L174.032 15.4021C176.384 15.2354 177.392 15.0393 177.302 14.7667C177.217 14.5121 176.017 14.3382 173.915 14.2757L170.658 14.1793L170.56 11.548L170.462 8.91663L169.404 9.19191ZM142.299 14.2033C140.162 14.6558 137.448 16.2415 136.57 17.5506C135.488 19.164 135.515 21.3892 136.63 22.5038C138.814 24.6884 142.874 22.172 141.052 19.7632C140.263 18.7203 140.433 17.3706 141.504 16.1722C142.371 15.2013 142.707 15.0717 144.683 14.9459C147.45 14.7698 149.096 15.2983 150.082 16.6794C150.752 17.6195 150.863 18.2523 150.968 21.7277L151.089 25.7012H147.742C142.169 25.7012 137.489 27.3549 135.688 29.9605C133.741 32.7768 134.203 37.5853 136.59 39.3563C140.418 42.1957 147.331 40.9985 150.054 37.0257C150.871 35.8319 151.355 35.7842 151.355 36.8978C151.355 39.8322 156.075 41.9934 159.084 40.4372C160.44 39.7365 161.375 37.5373 160.317 37.5373C160.038 37.5373 159.81 37.7548 159.81 38.0206C159.81 38.7612 158.839 39.5664 157.945 39.5664C156.234 39.5664 156.09 38.7926 156.09 29.5764C156.09 20.1312 155.847 18.5742 154.074 16.6371C152.477 14.8925 150.338 14.1171 146.795 13.999C145.118 13.9429 143.095 14.0349 142.299 14.2033ZM190.415 14.0741C186.511 15.0707 184.177 16.6625 183.467 18.813C182.961 20.3479 183.314 22.1639 184.247 22.8169C185.765 23.8805 188.579 23.2163 188.976 21.7013C189.068 21.3499 188.855 20.4348 188.504 19.6679C187.925 18.4068 187.911 18.162 188.352 17.1062C188.99 15.5783 190.402 14.8797 192.849 14.8803C197.08 14.8814 198.358 16.4569 198.62 21.9992L198.796 25.7012H195.42C189.258 25.7012 184.485 27.5199 182.806 30.508C182.191 31.602 181.992 32.4776 181.978 34.1508C181.953 37.215 182.799 38.7524 185.206 40.0205C186.873 40.8981 187.27 40.9701 189.738 40.8396C193.094 40.662 195.313 39.6232 197.307 37.2972C198.614 35.7724 198.695 35.7291 198.698 36.5573C198.701 37.7872 200.015 39.6211 201.412 40.3458C202.273 40.7922 203.125 40.9218 204.584 40.8277C206.252 40.7205 206.71 40.5477 207.374 39.776C208.168 38.8535 208.449 37.5373 207.853 37.5373C207.68 37.5373 207.441 37.8417 207.323 38.214C206.816 39.8112 204.352 39.9062 203.761 38.3513C203.581 37.8795 203.434 33.6453 203.434 28.9423C203.434 23.4487 203.297 19.9803 203.049 19.2418C201.912 15.8448 199.06 14.1631 194.164 14.0024C192.474 13.9466 190.787 13.9791 190.415 14.0741ZM151.01 30.0129C151.002 33.6852 150.49 35.2871 148.783 36.9929C146.919 38.8548 144.121 39.4088 141.696 38.3956C138.673 37.1325 138.384 31.5709 141.195 28.7597C142.78 27.1746 144.053 26.7925 147.889 26.7502L151.017 26.7157L151.01 30.0129ZM198.692 29.3366C198.682 32.6832 198.304 34.2733 197.111 35.9905C195.763 37.9323 193.622 38.9722 191.331 38.7987C188.197 38.561 186.877 37.0277 186.869 33.6169C186.862 30.6764 187.873 28.879 190.224 27.6505C191.827 26.8135 192.362 26.7157 195.357 26.7157H198.7L198.692 29.3366ZM104.46 46.0001C100.421 46.8175 97.7661 50.1728 98.4157 53.6364C98.9175 56.311 99.6679 56.8443 106.209 59.173C113.064 61.6133 113.695 62.1104 113.388 64.831C113.084 67.5323 110.535 69.3338 106.959 69.3754C104.499 69.4038 103.286 68.997 102.138 67.7579C101.223 66.7708 101.075 65.4681 101.716 64.0603C102.083 63.2561 102.039 63.0881 101.315 62.5017C100.397 61.7587 99.0444 61.9014 98.3467 62.8145C98.1144 63.1188 97.924 64.0471 97.924 64.8773C97.924 66.1986 98.0927 66.5472 99.2774 67.6744C100.913 69.2303 103.264 70.0027 106.355 70C109.371 69.9976 110.907 69.5096 112.541 68.0349C114.212 66.5276 114.833 65.1526 114.833 62.9612C114.833 61.1577 113.999 59.5829 112.428 58.4199C111.943 58.0604 109.28 56.9387 106.51 55.9272C100.944 53.8941 99.9074 53.1731 99.8543 51.2956C99.8059 49.5936 100.529 48.4471 102.308 47.4008C103.632 46.6224 104.22 46.4989 106.607 46.4989C108.889 46.4989 109.539 46.6234 110.327 47.2098C111.761 48.2774 112.034 49.3967 111.272 51.0856C110.65 52.466 110.65 52.5039 111.278 52.9631C112.172 53.6171 113.026 53.5471 113.818 52.7551C114.656 51.9168 114.664 50.9625 113.846 49.162C113.34 48.0478 112.848 47.5939 111.402 46.9074C109.364 45.9399 106.564 45.574 104.46 46.0001ZM137.287 47.4796L136.138 48.6294V58.9775V69.3257H137.49H138.843V57.8278C138.843 51.5039 138.752 46.3298 138.64 46.3298C138.529 46.3298 137.92 46.8472 137.287 47.4796ZM162.589 46.8577C161.148 47.8665 160.824 49.0626 160.824 53.3703V57.4006L159.347 55.9232C157.951 54.5268 157.765 54.446 155.954 54.446C154.901 54.446 153.538 54.6553 152.926 54.9113C150.377 55.9762 148.717 59.5027 149.086 63.0711C149.534 67.4194 152.216 69.8786 156.195 69.5908C158.046 69.4569 158.323 69.328 159.519 68.0457L160.824 66.6463V67.9862C160.824 69.3236 160.827 69.3257 162.177 69.3257H163.53V57.8278C163.53 51.5039 163.487 46.3298 163.436 46.3298C163.384 46.3298 163.003 46.5672 162.589 46.8577ZM143.662 47.8009C143.452 48.2615 142.95 48.7434 142.546 48.8715L141.812 49.1045L142.604 49.4992C143.039 49.7163 143.573 50.2503 143.79 50.6855L144.184 51.4775L144.421 50.7335C144.55 50.3247 145.117 49.7965 145.68 49.5597L146.704 49.1292L145.825 48.9088C145.342 48.7877 144.744 48.3004 144.495 47.8259L144.043 46.9636L143.662 47.8009ZM197.406 48.0752C196.973 48.6034 196.365 49.0413 196.053 49.0484C195.742 49.0559 195.967 49.2706 196.554 49.5259C197.141 49.7812 197.727 50.3247 197.857 50.7335L198.093 51.4775L198.487 50.6855C198.705 50.2503 199.221 49.7251 199.636 49.5185L200.389 49.1428L199.534 48.7535C199.064 48.5395 198.57 48.0833 198.436 47.7397C198.215 47.1722 198.121 47.2027 197.406 48.0752ZM121.596 55.2032C120.522 55.7733 119.751 56.5484 118.975 57.8345C118.03 59.4016 117.876 59.9711 117.876 61.8889C117.876 66.9256 120.95 69.9131 125.813 69.6033C127.561 69.492 128.298 69.2597 129.433 68.4616C133.625 65.5158 133.617 58.5886 129.419 55.6381C128.206 54.7859 127.595 54.6077 125.548 54.5106C123.497 54.4129 122.881 54.5208 121.596 55.2032ZM170.067 55.1011C168.485 55.8193 167.926 56.6164 167.926 58.1544C167.926 59.3323 168.941 59.9599 170.124 59.5142C170.698 59.2978 170.785 59.0032 170.695 57.563C170.605 56.1132 170.702 55.7875 171.362 55.3253C172.514 54.5184 174.478 54.6351 175.571 55.5748C176.399 56.287 176.493 56.5971 176.52 58.7029L176.549 61.0404L173.65 61.2389C168.957 61.5605 167.021 63.0505 167.144 66.2442C167.194 67.5154 167.396 67.9716 168.247 68.7325C169.091 69.4866 169.612 69.6638 170.986 69.6638C173.056 69.6638 174.684 69.0237 175.611 67.8448C176.407 66.8333 176.719 66.7309 176.719 67.4809C176.719 67.7684 177.092 68.3771 177.549 68.8336C179.019 70.304 182.149 69.6966 182.122 67.9463C182.117 67.6433 181.888 67.7596 181.502 68.2621C181.136 68.7379 180.628 69.0088 180.241 68.9347C179.641 68.8201 179.58 68.3862 179.424 63.0498C179.235 56.6046 178.984 55.8075 176.872 54.9249C175.224 54.2367 171.774 54.326 170.067 55.1011ZM189.738 54.8407C189.366 55.0463 188.719 55.5248 188.301 55.9039L187.54 56.5931V55.6885C187.54 54.4734 186.801 54.5282 185.71 55.8247C184.838 56.8616 184.835 56.8859 184.835 63.0955V69.3257H186.187H187.54V63.3816V57.4375L188.529 56.449C190.054 54.9232 191.383 55.2221 191.65 57.1514C191.888 58.8727 194.304 58.0986 194.304 56.3009C194.304 54.7575 191.507 53.8627 189.738 54.8407ZM206.816 55.2072C201.7 57.9383 201.682 66.183 206.785 68.8769C208.516 69.791 211.578 69.9442 213.347 69.2049C214.786 68.6037 216.52 66.8462 217.141 65.3585C217.414 64.7052 217.638 63.1476 217.638 61.8977C217.638 59.0665 216.685 57.0814 214.631 55.635C213.426 54.7859 212.814 54.6077 210.768 54.5106C208.712 54.4125 208.103 54.5201 206.816 55.2072ZM127.732 55.6732C129.22 57.0199 129.537 58.1412 129.537 62.0549C129.537 65.9987 129.223 67.087 127.682 68.4809C126.544 69.5113 123.63 69.4275 122.463 68.3314C121.179 67.1248 120.842 65.5371 120.973 61.3055C121.098 57.2454 121.513 56.1633 123.32 55.193C124.399 54.6127 126.855 54.8802 127.732 55.6732ZM143.89 55.7727L142.901 56.7612V63.0434V69.3257H144.254H145.607V62.0549C145.607 57.0872 145.491 54.7842 145.242 54.7842C145.042 54.7842 144.433 55.2289 143.89 55.7727ZM158.428 55.7263C160.219 57.0631 160.648 58.0418 160.775 61.0779C160.932 64.8165 160.671 66.0481 159.424 67.4687C158.039 69.0456 156.296 69.5624 154.663 68.8796C152.517 67.9831 152.201 67.1015 152.201 62.01C152.201 57.9999 152.274 57.4409 152.91 56.5843C154.313 54.6942 156.575 54.3425 158.428 55.7263ZM197.833 55.82L196.84 56.8558L196.734 63.0907L196.629 69.3257H198.003H199.376V62.0549C199.376 58.056 199.252 54.7842 199.101 54.7842C198.95 54.7842 198.379 55.2502 197.833 55.82ZM213.083 55.8092C214.288 56.9411 214.742 58.6509 214.742 62.0549C214.742 67.2422 213.565 69.1566 210.375 69.1566C207.557 69.1566 206.338 67.6899 205.941 63.8236C205.496 59.4814 206.449 56.2911 208.517 55.1978C209.716 54.5637 212.097 54.8826 213.083 55.8092ZM210.071 60.3143C209.95 60.7973 209.445 61.4053 208.948 61.6657C208.059 62.1314 208.056 62.1428 208.784 62.3738C209.191 62.503 209.733 63.0065 209.987 63.4932C210.445 64.367 210.454 64.3687 210.686 63.6376C210.815 63.2304 211.318 62.689 211.805 62.4344L212.689 61.9707L211.921 61.7269C211.498 61.593 210.959 61.0225 210.722 60.4598L210.292 59.4361L210.071 60.3143ZM124.724 60.6515C124.515 61.1121 124.014 61.5933 123.612 61.7211C122.913 61.943 122.927 61.9812 123.929 62.5909C124.506 62.9416 124.983 63.4972 124.99 63.8253C124.999 64.2831 125.111 64.2257 125.469 63.5787C125.725 63.1151 126.35 62.5662 126.856 62.3593L127.777 61.9826L126.893 61.7611C126.407 61.639 125.806 61.151 125.558 60.6765L125.106 59.8142L124.724 60.6515ZM155.82 60.8869C155.583 61.2673 155.052 61.7144 154.64 61.8801C154.097 62.0986 154.047 62.1872 154.459 62.2027C154.771 62.2142 155.342 62.6251 155.727 63.1151L156.428 64.0062L157.129 63.1151C157.514 62.6251 158.085 62.2142 158.397 62.2027C158.809 62.1872 158.759 62.0986 158.216 61.8801C157.804 61.7144 157.273 61.2673 157.036 60.8869C156.798 60.5064 156.524 60.195 156.428 60.195C156.332 60.195 156.058 60.5064 155.82 60.8869ZM176.719 63.2166C176.719 67.02 174.485 69.2655 171.457 68.5052C169.502 68.0149 169.244 64.3112 171.05 62.6677C172.08 61.7306 172.506 61.6055 174.774 61.5744L176.719 61.5477V63.2166Z" fill="#FF4444"/>
</svg>
