<svg width="1728" height="311" viewBox="0 0 1728 311" fill="none" xmlns="http://www.w3.org/2000/svg">
<path d="M148.804 257.096L164.799 264.658L147.592 235.043L161.614 243.238L140.794 190.304L161.519 201.06L119.808 133.936L135.162 142.251L119.571 116.643H130.788C103.029 89.1066 87.6518 7.09999 86.0832 0.532231C84.5146 7.09999 69.1137 89.1066 41.3779 116.643H52.5958L37.0048 142.251L48.294 140.534L14.3789 195.546L31.2295 190.304L6.70222 239.201L24.4322 235.043L3.68385 266.315L23.2201 257.096C23.2201 257.096 13.7134 287.947 0 310H172C158.405 287.947 148.804 257.096 148.804 257.096Z" fill="#4D4D4D"/>
<path d="M379.53 272.507L391.402 277.86L378.723 256.897L389.028 262.697L373.713 225.227L389.004 232.84L358.138 185.304L369.463 191.19L357.971 173.063H366.234C345.815 153.57 334.466 95.52 333.326 90.8709C332.186 95.52 320.861 153.57 300.441 173.063H308.585L297.117 191.19L305.427 189.974L280.568 228.938L292.962 225.227L274.917 259.84L287.952 256.897L272.709 279.033L286.955 272.507C286.955 272.507 279.832 294.346 269.86 309.956H396.483C386.606 294.346 379.53 272.507 379.53 272.507Z" fill="#4D4D4D"/>
<path d="M590.68 272.551L602.552 277.903L589.873 256.94L600.201 262.74L584.863 225.27L600.154 232.884L569.358 185.368L580.66 191.255L569.169 173.127H577.431C557.012 153.635 545.686 95.5845 544.523 90.9353C543.359 95.5845 532.034 153.635 511.615 173.127H519.854L508.385 191.255L516.696 190.039L491.836 229.002L504.254 225.291L486.185 259.904L499.244 256.961L483.977 279.098L498.223 272.572C498.223 272.572 491.1 294.41 481.152 310.021H607.751C597.756 294.389 590.68 272.551 590.68 272.551Z" fill="#303030"/>
<path d="M1704.68 272.551L1720.69 277.903L1703.5 256.94L1717.48 262.74L1696.68 225.27L1717.43 232.884L1675.74 185.368L1691.1 191.255L1675.53 173.127H1686.71C1659 153.635 1643.62 95.5845 1642.07 90.9353C1640.53 95.5845 1625.14 153.635 1597.44 173.127H1608.62L1593.04 191.255L1604.34 190.039L1570.58 229.002L1587.44 225.291L1562.94 259.904L1580.63 256.961L1559.85 279.076L1579.37 272.551C1579.37 272.551 1569.87 294.389 1556.17 310H1728C1714.3 294.389 1704.68 272.551 1704.68 272.551Z" fill="#4D4D4D"/>
<path d="M1358.24 272.551L1370.12 277.903L1357.46 256.94L1367.77 262.74L1352.45 225.27L1367.72 232.884L1336.9 185.368L1348.2 191.255L1336.73 173.127H1344.97C1324.55 153.635 1313.23 95.5845 1312.09 90.9353C1310.95 95.5845 1299.6 153.635 1279.18 173.127H1287.44L1275.97 191.255L1284.28 190.039L1259.4 229.002L1271.82 225.291L1253.77 259.904L1266.81 256.961L1251.54 279.098L1265.93 272.572C1265.93 272.572 1258.81 294.41 1248.84 310.021H1375.34C1365.32 294.389 1358.24 272.551 1358.24 272.551Z" fill="#4D4D4D"/>
<path d="M1569.35 272.551L1581.23 277.903L1568.55 256.94L1578.85 262.74L1563.54 225.27L1578.8 232.884L1547.98 185.368L1559.29 191.255L1547.82 173.127H1556.08C1535.66 153.635 1524.31 95.5845 1523.17 90.9353C1522.03 95.5845 1510.71 153.635 1490.29 173.127H1498.53L1487.06 191.255L1495.37 190.039L1470.51 229.002L1482.9 225.291L1464.88 259.883L1477.92 256.94L1462.51 279.076L1476.9 272.551C1476.9 272.551 1469.77 294.389 1459.8 310H1586.43C1576.48 294.389 1569.35 272.551 1569.35 272.551Z" fill="#303030"/>
</svg>
