<svg width="26" height="26" viewBox="0 0 26 26" fill="none" xmlns="http://www.w3.org/2000/svg">
<path d="M13.0002 2.22797L12.3906 2.89038C12.5566 3.04302 12.774 3.12772 12.9996 3.12772C13.2251 3.12772 13.4425 3.04302 13.6086 2.89038L13.0002 2.22797ZM11.3105 8.33603C10.4825 7.73243 9.59813 6.99802 8.93092 6.22401C8.24212 5.426 7.90011 4.7192 7.90011 4.15879H6.1001C6.1001 5.3792 6.7937 6.50361 7.56771 7.40002C8.36332 8.32163 9.36893 9.14844 10.2497 9.79045L11.3105 8.33603ZM7.90011 4.15879C7.90011 2.88798 8.52412 2.16317 9.27533 1.91117C10.0577 1.64717 11.2241 1.81757 12.3906 2.89038L13.6086 1.56557C12.0762 0.156755 10.2449 -0.313649 8.70172 0.204756C7.12611 0.735161 6.1001 2.21598 6.1001 4.15879H7.90011ZM15.7506 9.79045C16.6314 9.14964 17.637 8.32163 18.4326 7.40002C19.2066 6.50361 19.9002 5.3792 19.9002 4.15879H18.1002C18.1002 4.7192 17.7594 5.426 17.0694 6.22401C16.4022 6.99802 15.519 7.73243 14.691 8.33603L15.7506 9.79045ZM19.9002 4.15879C19.9002 2.21598 18.8742 0.735161 17.2998 0.204756C15.7566 -0.313649 13.9242 0.156755 12.3918 1.56557L13.6098 2.89038C14.7762 1.81757 15.9438 1.64717 16.7262 1.91117C17.4762 2.16317 18.1002 2.88798 18.1002 4.15879H19.9002ZM10.2497 9.79045C11.1557 10.4505 11.8746 11.0121 13.0002 11.0121V9.21204C12.5622 9.21204 12.3222 9.07404 11.3105 8.33603L10.2497 9.79045ZM14.6898 8.33603C13.6782 9.07404 13.4382 9.21204 13.0002 9.21204V11.0121C14.1258 11.0121 14.8446 10.4517 15.7506 9.79045L14.6898 8.33603Z" fill="black"/>
<path d="M4.6001 22.9667H7.31212C8.52413 22.9667 9.75175 23.0939 10.9314 23.3363C13.0375 23.7676 15.2042 23.8156 17.3274 23.4779C18.369 23.3099 19.3914 23.0519 20.3178 22.6055C21.1531 22.2011 22.1767 21.6335 22.8643 20.9963C23.5507 20.3603 24.2659 19.3199 24.7723 18.5063C25.2091 17.8079 24.9979 16.9522 24.3091 16.4326C23.9218 16.1516 23.4556 16.0003 22.9771 16.0003C22.4986 16.0003 22.0323 16.1516 21.6451 16.4326L19.4766 18.0707C18.6366 18.7067 17.7186 19.2911 16.6254 19.4651C16.4934 19.4859 16.3554 19.5047 16.2114 19.5215M16.2114 19.5215L16.0794 19.5359M16.2114 19.5215C16.4034 19.4694 16.5795 19.3705 16.7238 19.2335C16.9049 19.0772 17.0528 18.8862 17.1588 18.6718C17.2648 18.4573 17.3267 18.2238 17.3408 17.985C17.3549 17.7462 17.3209 17.507 17.2409 17.2816C17.1609 17.0562 17.0365 16.8491 16.875 16.6726C16.7186 16.499 16.5365 16.3505 16.335 16.2322C12.9786 14.2294 7.75493 15.7546 4.6001 17.9927M16.2114 19.5215C16.1681 19.5311 16.1238 19.536 16.0794 19.5359M16.0794 19.5359C15.3557 19.6084 14.6266 19.61 13.9026 19.5407" stroke="black" stroke-width="1.5" stroke-linecap="round"/>
<path d="M4.60003 17.1008C4.60003 16.1067 3.79414 15.3008 2.80002 15.3008C1.80589 15.3008 1 16.1067 1 17.1008V23.1009C1 24.095 1.80589 24.9009 2.80002 24.9009C3.79414 24.9009 4.60003 24.095 4.60003 23.1009V17.1008Z" stroke="black" stroke-width="1.5"/>
</svg>
