<svg width="24" height="24" viewBox="0 0 24 24" fill="none" xmlns="http://www.w3.org/2000/svg">
<path d="M5.3998 6.9C5.3998 6.18392 5.68427 5.49716 6.19062 4.99081C6.69697 4.48446 7.38372 4.2 8.0998 4.2C8.81589 4.2 9.50265 4.48446 10.009 4.99081C10.5153 5.49716 10.7998 6.18392 10.7998 6.9C10.7998 7.61608 10.5153 8.30284 10.009 8.80919C9.50265 9.31554 8.81589 9.6 8.0998 9.6C7.38372 9.6 6.69697 9.31554 6.19062 8.80919C5.68427 8.30284 5.3998 7.61608 5.3998 6.9ZM8.0998 3C7.06546 3 6.07348 3.41089 5.34209 4.14228C4.6107 4.87368 4.1998 5.86566 4.1998 6.9C4.1998 7.93434 4.6107 8.92632 5.34209 9.65772C6.07348 10.3891 7.06546 10.8 8.0998 10.8C9.13415 10.8 10.1261 10.3891 10.8575 9.65772C11.5889 8.92632 11.9998 7.93434 11.9998 6.9C11.9998 5.86566 11.5889 4.87368 10.8575 4.14228C10.1261 3.41089 9.13415 3 8.0998 3ZM11.9998 12C12.2998 12.0016 12.5826 12.0532 12.8482 12.1548C12.265 12.3492 11.761 12.7188 11.3998 13.2H4.1998C3.88155 13.2 3.57632 13.3264 3.35128 13.5515C3.12623 13.7765 2.9998 14.0817 2.9998 14.4V14.4936L3.0082 14.5932C3.07332 15.1684 3.27852 15.7189 3.6058 16.1964C4.1902 17.0412 5.4154 18 8.0998 18C9.2434 18 10.123 17.826 10.7998 17.5608V18.6C10.7998 18.6768 10.8026 18.7528 10.8082 18.828C10.0618 19.0608 9.16781 19.2 8.0998 19.2C5.0842 19.2 3.4594 18.096 2.6182 16.8792C2.17528 16.2339 1.89906 15.4889 1.8142 14.7108C1.80736 14.641 1.80256 14.5709 1.7998 14.5008V14.4C1.7998 13.7635 2.05266 13.153 2.50275 12.7029C2.95284 12.2529 3.56329 12 4.1998 12H11.9998ZM15.5998 7.8C15.5998 7.32261 15.7894 6.86477 16.127 6.52721C16.4646 6.18964 16.9224 6 17.3998 6C17.8772 6 18.335 6.18964 18.6726 6.52721C19.0102 6.86477 19.1998 7.32261 19.1998 7.8C19.1998 8.27739 19.0102 8.73523 18.6726 9.07279C18.335 9.41036 17.8772 9.6 17.3998 9.6C16.9224 9.6 16.4646 9.41036 16.127 9.07279C15.7894 8.73523 15.5998 8.27739 15.5998 7.8ZM17.3998 4.8C16.6042 4.8 15.8411 5.11607 15.2785 5.67868C14.7159 6.24129 14.3998 7.00435 14.3998 7.8C14.3998 8.59565 14.7159 9.35871 15.2785 9.92132C15.8411 10.4839 16.6042 10.8 17.3998 10.8C18.1955 10.8 18.9585 10.4839 19.5211 9.92132C20.0837 9.35871 20.3998 8.59565 20.3998 7.8C20.3998 7.00435 20.0837 6.24129 19.5211 5.67868C18.9585 5.11607 18.1955 4.8 17.3998 4.8ZM11.9998 15C11.9998 14.5226 12.1894 14.0648 12.527 13.7272C12.8646 13.3896 13.3224 13.2 13.7998 13.2H20.9998C21.4772 13.2 21.935 13.3896 22.2726 13.7272C22.6102 14.0648 22.7998 14.5226 22.7998 15V18.6C22.7998 19.0774 22.6102 19.5352 22.2726 19.8728C21.935 20.2104 21.4772 20.4 20.9998 20.4H13.7998C13.3224 20.4 12.8646 20.2104 12.527 19.8728C12.1894 19.5352 11.9998 19.0774 11.9998 18.6V15ZM13.1998 15V16.2C13.6772 16.2 14.135 16.0104 14.4726 15.6728C14.8102 15.3352 14.9998 14.8774 14.9998 14.4H13.7998C13.7998 14.5591 13.7366 14.7117 13.6241 14.8243C13.5115 14.9368 13.3589 15 13.1998 15ZM21.5998 16.2V15C21.4407 15 21.2881 14.9368 21.1755 14.8243C21.063 14.7117 20.9998 14.5591 20.9998 14.4H19.7998C19.7998 14.8774 19.9894 15.3352 20.327 15.6728C20.6646 16.0104 21.1224 16.2 21.5998 16.2ZM19.7998 19.2H20.9998C20.9998 19.0409 21.063 18.8883 21.1755 18.7757C21.2881 18.6632 21.4407 18.6 21.5998 18.6V17.4C21.1224 17.4 20.6646 17.5896 20.327 17.9272C19.9894 18.2648 19.7998 18.7226 19.7998 19.2ZM13.1998 17.4V18.6C13.3589 18.6 13.5115 18.6632 13.6241 18.7757C13.7366 18.8883 13.7998 19.0409 13.7998 19.2H14.9998C14.9998 18.7226 14.8102 18.2648 14.4726 17.9272C14.135 17.5896 13.6772 17.4 13.1998 17.4ZM17.3998 18.6C17.8772 18.6 18.335 18.4104 18.6726 18.0728C19.0102 17.7352 19.1998 17.2774 19.1998 16.8C19.1998 16.3226 19.0102 15.8648 18.6726 15.5272C18.335 15.1896 17.8772 15 17.3998 15C16.9224 15 16.4646 15.1896 16.127 15.5272C15.7894 15.8648 15.5998 16.3226 15.5998 16.8C15.5998 17.2774 15.7894 17.7352 16.127 18.0728C16.4646 18.4104 16.9224 18.6 17.3998 18.6Z" fill="black"/>
</svg>
