<svg width="24" height="24" viewBox="0 0 24 24" fill="none" xmlns="http://www.w3.org/2000/svg">
<mask id="mask0_4048_6846" style="mask-type:luminance" maskUnits="userSpaceOnUse" x="0" y="0" width="24" height="24">
<rect width="24" height="24" fill="white"/>
</mask>
<g mask="url(#mask0_4048_6846)">
<path d="M10.2524 5.88513L10.5308 10.0251L10.669 12.1059C10.6705 12.3199 10.704 12.5325 10.7687 12.7368C10.9356 13.1334 11.3372 13.3854 11.7741 13.3678L18.4313 12.9323C18.7196 12.9276 18.998 13.0354 19.2052 13.2321C19.3779 13.396 19.4894 13.6104 19.5246 13.841L19.5364 13.981C19.2609 17.7957 16.4592 20.9775 12.6524 21.7988C8.84555 22.6201 4.94186 20.8851 3.06071 17.5357C2.51839 16.5626 2.17965 15.4931 2.06438 14.3898C2.01623 14.0632 1.99503 13.7333 2.00098 13.4033C1.99503 9.31352 4.90747 5.77775 8.98433 4.92536C9.47501 4.84895 9.95603 5.10871 10.1528 5.55632C10.2037 5.65998 10.2373 5.771 10.2524 5.88513Z" fill="black"/>
<path opacity="0.4" d="M22.0005 9.81229L21.9935 9.84488L21.9733 9.89227L21.9761 10.0224C21.9657 10.1947 21.8991 10.3605 21.7845 10.4945C21.665 10.634 21.5018 10.729 21.3221 10.7659L21.2125 10.7809L13.5317 11.2786C13.2762 11.3038 13.0218 11.2214 12.8319 11.052C12.6735 10.9107 12.5723 10.7201 12.5437 10.5147L12.0282 2.84506C12.0192 2.81913 12.0192 2.79102 12.0282 2.76508C12.0352 2.55367 12.1283 2.35384 12.2866 2.21023C12.4448 2.06662 12.6552 1.9912 12.8705 2.00082C17.4304 2.11683 21.2628 5.39579 22.0005 9.81229Z" fill="black"/>
</g>
</svg>
