<svg width="60" height="60" viewBox="0 0 60 60" fill="none" xmlns="http://www.w3.org/2000/svg">
<rect width="60" height="60" rx="30" fill="#E9E9E9"/>
<g clip-path="url(#clip0_4048_6835)">
<path fill-rule="evenodd" clip-rule="evenodd" d="M20.5845 22.4253C20.5845 19.8214 21.5765 17.3242 23.3423 15.483C25.108 13.6418 27.5029 12.6074 30.0001 12.6074C32.4973 12.6074 34.8922 13.6418 36.658 15.483C38.4238 17.3242 39.4158 19.8214 39.4158 22.4253C39.4158 25.0291 38.4238 27.5263 36.658 29.3675C34.8922 31.2087 32.4973 32.2431 30.0001 32.2431C27.5029 32.2431 25.108 31.2087 23.3423 29.3675C21.5765 27.5263 20.5845 25.0291 20.5845 22.4253ZM20.5845 37.152C17.463 37.152 14.4694 38.445 12.2622 40.7465C10.0549 43.048 8.81494 46.1695 8.81494 49.4244C8.81494 51.3773 9.55894 53.2502 10.8833 54.6311C12.2076 56.012 14.0038 56.7878 15.8767 56.7878L23.3423 59.501L30.0001 60.501L37.5 59.501L44.1236 56.7878C45.9965 56.7878 47.7926 56.012 49.117 54.6311C50.4413 53.2502 51.1853 51.3773 51.1853 49.4244C51.1853 46.1695 49.9453 43.048 47.7381 40.7465C45.5309 38.445 42.5372 37.152 39.4158 37.152H20.5845Z" fill="#A9A9A9"/>
</g>
<defs>
<clipPath id="clip0_4048_6835">
<rect width="44" height="49" fill="white" transform="translate(8 11)"/>
</clipPath>
</defs>
</svg>
