<svg width="37" height="37" viewBox="0 0 37 37" fill="none" xmlns="http://www.w3.org/2000/svg">
<path d="M18.5002 34.887C17.4673 34.887 16.419 34.6558 15.6019 34.1778L7.12278 29.2908C3.66945 26.9628 3.45361 26.6083 3.45361 22.9545V14.0437C3.45361 10.3899 3.65403 10.0353 7.0457 7.73826L15.5865 2.80492C17.2052 1.86451 19.749 1.86451 21.3677 2.80492L29.8777 7.70742C33.3311 10.0353 33.5469 10.3899 33.5469 14.0437V22.9391C33.5469 26.5928 33.3465 26.9474 29.9548 29.2445L21.414 34.1778C20.5815 34.6558 19.5331 34.887 18.5002 34.887ZM18.5002 4.42367C17.8527 4.42367 17.2207 4.54701 16.7736 4.80909L8.29445 9.71159C5.78153 11.4074 5.78153 11.4074 5.78153 14.0437V22.9391C5.78153 25.5753 5.78153 25.5753 8.35611 27.3174L16.7736 32.1737C17.6832 32.6978 19.3327 32.6978 20.2423 32.1737L28.7215 27.2712C31.219 25.5753 31.219 25.5753 31.219 22.9391V14.0437C31.219 11.4074 31.219 11.4074 28.6444 9.66534L20.2269 4.80909C19.7798 4.54701 19.1477 4.42367 18.5002 4.42367Z" fill="black"/>
<path d="M18.5 24.2812C15.3088 24.2812 12.7188 21.6912 12.7188 18.5C12.7188 15.3088 15.3088 12.7188 18.5 12.7188C21.6912 12.7188 24.2812 15.3088 24.2812 18.5C24.2812 21.6912 21.6912 24.2812 18.5 24.2812ZM18.5 15.0312C16.5883 15.0312 15.0312 16.5883 15.0312 18.5C15.0312 20.4117 16.5883 21.9688 18.5 21.9688C20.4117 21.9688 21.9688 20.4117 21.9688 18.5C21.9688 16.5883 20.4117 15.0312 18.5 15.0312Z" fill="black"/>
</svg>
