<svg width="220" height="30" viewBox="0 0 220 30" fill="none" xmlns="http://www.w3.org/2000/svg">
<path fill-rule="evenodd" clip-rule="evenodd" d="M8.74565 0.0696138C4.51042 0.781459 1.15056 3.92878 0.209712 8.06559C-0.214735 9.93146 0.0226315 12.6258 0.763356 14.3525C1.46102 15.979 1.83163 16.3986 8.41633 23.0166C12.7939 27.4164 15.0528 29.5985 15.3955 29.7586C16.1395 30.1063 17.161 30.0759 17.9355 29.6833C18.4038 29.4458 20.1496 27.7745 24.8484 23.0651C30.4093 17.4917 31.2025 16.6478 31.722 15.7514C32.899 13.7207 33.2538 12.2504 33.1584 9.79973C33.0854 7.92487 32.8428 6.97591 32.0405 5.42834C31.052 3.52143 29.4158 1.946 27.4383 0.996786C26.0481 0.329526 25.1458 0.106219 23.5019 0.022495C21.2739 -0.0911217 19.1647 0.444916 17.4018 1.5726C16.6133 2.07697 16.6887 2.08444 15.5804 1.39273C14.7476 0.87291 13.4266 0.372718 12.3344 0.163851C11.456 -0.00423078 9.49169 -0.0557825 8.74565 0.0696138ZM25.0218 1.9555C26.2384 2.24505 27.7215 3.04442 28.6927 3.93359C30.4274 5.52232 31.3792 7.52841 31.5052 9.86154C31.5907 11.4458 31.3389 12.621 30.5825 14.1681L29.9941 15.3714L23.5814 21.7998C17.284 28.1128 17.1597 28.2283 16.6702 28.2279C16.0061 28.2275 15.5854 27.8396 15.5854 27.2273C15.5854 26.809 15.8028 26.5596 18.6887 23.6653C21.3666 20.9795 21.7919 20.5006 21.7919 20.1713C21.7919 19.6595 21.5618 19.3817 21.0553 19.2821C20.6444 19.2014 20.5682 19.2664 17.5087 22.3125C15.573 24.2396 14.2547 25.4564 14.0475 25.5068C13.3536 25.6758 12.535 24.8477 12.7583 24.2026C12.7999 24.0826 14.2224 22.5853 15.9196 20.8754C18.6606 18.1138 19.0053 17.721 19.0053 17.3605C19.0053 16.8608 18.6212 16.448 18.1562 16.448C17.8779 16.448 17.2255 17.0345 14.6759 19.5766C11.7753 22.4687 11.5047 22.7052 11.0954 22.7052C10.4816 22.7052 10.0123 22.2498 10.0123 21.6541C10.0123 21.2359 10.2296 20.9865 13.1155 18.0921C15.9411 15.2583 16.2188 14.9415 16.2188 14.5522C16.2188 14.0081 15.9062 13.6614 15.4157 13.6614C15.0836 13.6614 14.6106 14.0804 11.9122 16.7647C8.9554 19.7059 8.76794 19.8679 8.32006 19.8679C7.6756 19.8679 7.2257 19.418 7.2257 18.7738C7.2257 18.3324 7.36388 18.1625 9.34249 16.1715C11.1763 14.3262 11.5118 14.0414 11.8531 14.0414C12.8529 14.0414 13.4295 13.6838 15.1453 11.9997L16.7951 10.3805L17.1771 10.6795C18.3794 11.6204 20.2278 12.1539 21.4083 11.9008C22.4967 11.6674 23.7085 10.9207 24.0575 10.2681C24.3308 9.75781 23.8472 9.10156 23.198 9.10156C23.0565 9.10156 22.7457 9.27269 22.5074 9.48193C21.1891 10.6395 19.7318 10.4861 17.8763 8.99466C17.4294 8.63545 16.9839 8.34159 16.8863 8.34159C16.5144 8.34159 16.1006 8.67902 14.3188 10.4357C12.36 12.3668 12.089 12.5274 11.1031 12.3425C10.5913 12.2465 9.83862 11.765 9.78783 11.5012C9.73134 11.208 17.6509 3.42707 18.5314 2.91066C20.5272 1.74017 22.7461 1.41363 25.0218 1.9555ZM12.3725 1.94207C13.2623 2.15195 14.4066 2.63327 14.9713 3.0353L15.3581 3.31079L11.8119 6.87116C9.86142 8.82937 8.20265 10.556 8.12564 10.7082C7.74539 11.4596 8.15768 12.6697 8.99315 13.2546L9.48384 13.5981L7.74666 15.3714C6.79124 16.3467 5.92537 17.2789 5.82265 17.4431C5.63595 17.7411 5.63481 17.7404 4.40833 16.4625C3.02441 15.0206 2.29876 13.7498 1.96805 12.1886C1.4866 9.91626 1.95386 7.39377 3.19034 5.59022C4.44861 3.755 6.30511 2.44568 8.35502 1.9479C9.30043 1.71838 11.4109 1.71534 12.3725 1.94207Z" fill="black"/>
<path fill-rule="evenodd" clip-rule="evenodd" d="M125.58 5.14546C122.239 5.82165 120.043 8.59746 120.58 11.4628C120.995 13.6754 121.616 14.1166 127.028 16.0431C132.699 18.0619 133.22 18.4731 132.967 20.7238C132.715 22.9585 130.606 24.4488 127.648 24.4833C125.613 24.5068 124.61 24.1702 123.66 23.1452C122.903 22.3285 122.78 21.2509 123.311 20.0862C123.614 19.4209 123.578 19.2819 122.979 18.7968C122.22 18.1822 121.1 18.3002 120.523 19.0556C120.331 19.3074 120.173 20.0753 120.173 20.7621C120.173 21.8552 120.313 22.1436 121.293 23.0761C122.646 24.3632 124.591 25.0022 127.148 25C129.643 24.998 130.914 24.5943 132.266 23.3743C133.648 22.1274 134.162 20.9899 134.162 19.177C134.162 17.685 133.472 16.3822 132.172 15.4201C131.771 15.1227 129.568 14.1947 127.277 13.3579C122.672 11.676 121.814 11.0795 121.77 9.52628C121.73 8.11823 122.328 7.16982 123.8 6.30424C124.895 5.66022 125.382 5.55811 127.357 5.55811C129.244 5.55811 129.782 5.66106 130.434 6.14617C131.62 7.02939 131.846 7.9554 131.216 9.35254C130.701 10.4945 130.701 10.5259 131.221 10.9058C131.961 11.4469 132.667 11.3889 133.322 10.7337C134.016 10.0402 134.022 9.25071 133.345 7.76125C132.927 6.83943 132.52 6.46399 131.323 5.89607C129.637 5.09567 127.321 4.79296 125.58 5.14546ZM152.738 6.36943L151.787 7.32062V15.8814V24.4421H152.906H154.025V14.9302C154.025 9.69861 153.949 5.41823 153.857 5.41823C153.765 5.41823 153.261 5.84627 152.738 6.36943ZM173.669 5.85494C172.477 6.68948 172.209 7.679 172.209 11.2426V14.5768L170.987 13.3546C169.832 12.1994 169.678 12.1325 168.18 12.1325C167.309 12.1325 166.182 12.3057 165.675 12.5175C163.567 13.3985 162.194 16.3159 162.498 19.2679C162.869 22.8651 165.088 24.8996 168.38 24.6615C169.911 24.5507 170.14 24.4441 171.13 23.3832L172.209 22.2256V23.334C172.209 24.4405 172.211 24.4421 173.328 24.4421H174.447V14.9302C174.447 9.69861 174.412 5.41823 174.37 5.41823C174.327 5.41823 174.012 5.61463 173.669 5.85494ZM158.011 6.6352C157.838 7.01624 157.422 7.4149 157.088 7.52093L156.48 7.71368L157.136 8.04017C157.496 8.21978 157.937 8.66153 158.117 9.02158L158.444 9.67678L158.639 9.06131C158.746 8.72308 159.215 8.28608 159.681 8.09025L160.528 7.73412L159.801 7.55171C159.401 7.45155 158.906 7.04842 158.701 6.65591L158.327 5.94251L158.011 6.6352ZM202.472 6.86209C202.115 7.29908 201.611 7.66137 201.353 7.66725C201.096 7.6734 201.282 7.85105 201.768 8.06227C202.253 8.2735 202.738 8.72308 202.845 9.06131L203.041 9.67678L203.367 9.02158C203.547 8.66153 203.974 8.22705 204.317 8.05611L204.94 7.7453L204.233 7.42329C203.844 7.2462 203.436 6.86881 203.325 6.58457C203.142 6.11512 203.064 6.1403 202.472 6.86209ZM139.757 12.7589C138.869 13.2306 138.23 13.8718 137.589 14.9358C136.807 16.2322 136.679 16.7033 136.679 18.2899C136.679 22.4567 139.222 24.9281 143.245 24.6718C144.691 24.5798 145.301 24.3876 146.24 23.7273C149.708 21.2903 149.701 15.5597 146.228 13.1187C145.225 12.4137 144.719 12.2663 143.026 12.186C141.329 12.1051 140.82 12.1944 139.757 12.7589ZM179.856 12.6745C178.547 13.2687 178.084 13.9281 178.084 15.2004C178.084 16.1749 178.924 16.6941 179.903 16.3254C180.378 16.1463 180.449 15.9026 180.375 14.7111C180.301 13.5118 180.381 13.2424 180.927 12.8599C181.88 12.1924 183.505 12.2889 184.409 13.0664C185.094 13.6556 185.172 13.9121 185.194 15.6542L185.218 17.5879L182.819 17.7522C178.938 18.0182 177.335 19.2509 177.438 21.8929C177.478 22.9446 177.646 23.322 178.35 23.9514C179.048 24.5753 179.479 24.7219 180.616 24.7219C182.328 24.7219 183.675 24.1923 184.442 23.2171C185.101 22.3803 185.358 22.2955 185.358 22.916C185.358 23.1538 185.667 23.6574 186.045 24.0351C187.261 25.2515 189.851 24.749 189.828 23.301C189.824 23.0503 189.635 23.1465 189.315 23.5623C189.012 23.9559 188.593 24.18 188.272 24.1187C187.776 24.0239 187.726 23.6649 187.596 19.2503C187.44 13.9183 187.233 13.2589 185.485 12.5287C184.122 11.9594 181.268 12.0332 179.856 12.6745ZM196.129 12.459C195.821 12.6291 195.286 13.025 194.94 13.3386L194.311 13.9088V13.1604C194.311 12.1552 193.699 12.2005 192.797 13.2731C192.075 14.1309 192.073 14.151 192.073 19.2881V24.4421H193.192H194.311V19.5247V14.6073L195.128 13.7896C196.391 12.5273 197.49 12.7746 197.711 14.3707C197.908 15.7947 199.906 15.1543 199.906 13.6671C199.906 12.3902 197.592 11.65 196.129 12.459ZM210.257 12.7623C206.025 15.0217 206.009 21.8423 210.231 24.0709C211.664 24.8271 214.196 24.9538 215.66 24.3423C216.85 23.8448 218.285 22.3909 218.799 21.1602C219.025 20.6197 219.21 19.3311 219.21 18.2971C219.21 15.955 218.421 14.3127 216.722 13.1162C215.725 12.4137 215.219 12.2663 213.527 12.186C211.826 12.1049 211.322 12.1938 210.257 12.7623ZM144.833 13.1478C146.063 14.2618 146.326 15.1895 146.326 18.4272C146.326 21.6898 146.066 22.5901 144.792 23.7433C143.85 24.5957 141.439 24.5263 140.474 23.6196C139.411 22.6214 139.133 21.308 139.241 17.8073C139.345 14.4484 139.688 13.5532 141.182 12.7506C142.076 12.2705 144.108 12.4918 144.833 13.1478ZM158.2 13.2301L157.382 14.0478V19.245V24.4421H158.501H159.62V18.4272C159.62 14.3175 159.525 12.4123 159.319 12.4123C159.153 12.4123 158.649 12.7802 158.2 13.2301ZM170.227 13.1917C171.709 14.2976 172.064 15.1073 172.168 17.619C172.298 20.7118 172.083 21.7307 171.051 22.906C169.905 24.2105 168.463 24.638 167.112 24.0731C165.337 23.3315 165.075 22.6021 165.075 18.39C165.075 15.0726 165.136 14.6101 165.662 13.9015C166.823 12.3379 168.694 12.0469 170.227 13.1917ZM202.826 13.2692L202.004 14.1261L201.917 19.2841L201.83 24.4421H202.966H204.102V18.4272C204.102 15.119 204 12.4123 203.875 12.4123C203.75 12.4123 203.278 12.7978 202.826 13.2692ZM215.442 13.2603C216.439 14.1966 216.815 15.6111 216.815 18.4272C216.815 22.7185 215.84 24.3023 213.201 24.3023C210.87 24.3023 209.861 23.0889 209.533 19.8904C209.166 16.2982 209.954 13.6589 211.664 12.7545C212.656 12.2299 214.626 12.4937 215.442 13.2603ZM212.95 16.9873C212.85 17.3868 212.432 17.8898 212.02 18.1052C211.285 18.4905 211.283 18.5 211.885 18.691C212.222 18.7979 212.67 19.2145 212.881 19.6171C213.26 20.34 213.267 20.3414 213.458 19.7365C213.565 19.3997 213.982 18.9518 214.384 18.7411L215.116 18.3576L214.48 18.1559C214.131 18.0451 213.685 17.5731 213.489 17.1076L213.133 16.2607L212.95 16.9873ZM142.345 17.2662C142.171 17.6472 141.757 18.0454 141.424 18.1511C140.846 18.3346 140.857 18.3662 141.687 18.8707C142.164 19.1608 142.559 19.6204 142.564 19.8918C142.572 20.2706 142.664 20.223 142.96 19.6878C143.173 19.3043 143.689 18.8502 144.108 18.679L144.87 18.3674L144.139 18.1841C143.737 18.0831 143.24 17.6794 143.034 17.2869L142.66 16.5735L142.345 17.2662ZM168.07 17.4609C167.873 17.7757 167.434 18.1455 167.093 18.2826C166.644 18.4633 166.603 18.5366 166.943 18.5495C167.202 18.559 167.674 18.8989 167.992 19.3043L168.572 20.0415L169.152 19.3043C169.471 18.8989 169.943 18.559 170.201 18.5495C170.542 18.5366 170.501 18.4633 170.052 18.2826C169.711 18.1455 169.272 17.7757 169.075 17.4609C168.878 17.1462 168.652 16.8885 168.572 16.8885C168.493 16.8885 168.266 17.1462 168.07 17.4609ZM185.358 19.3882C185.358 22.5347 183.51 24.3923 181.005 23.7634C179.388 23.3578 179.175 20.2938 180.669 18.9342C181.521 18.1589 181.873 18.0554 183.75 18.0297L185.358 18.0076V19.3882Z" fill="black"/>
<path fill-rule="evenodd" clip-rule="evenodd" d="M51.3411 13.1485C51.3411 17.6303 51.2927 22.089 51.2334 23.0567C51.1281 24.7789 51.1334 24.8164 51.4796 24.8164H51.8335L51.8763 16.1215L51.9191 7.42669L56.4603 13.2517C58.958 16.4555 61.9928 20.3496 63.204 21.9054C64.4566 23.514 65.5427 24.7566 65.7224 24.7867C66.0305 24.838 66.0383 24.5978 66.0383 14.9198C66.0383 6.21227 66.008 5 65.7906 5C65.5741 5 65.5429 5.93583 65.5429 12.4312C65.5429 16.5183 65.4872 19.86 65.419 19.8574C65.3508 19.8545 62.6571 16.5137 59.4328 12.4331L53.5704 5.01387L52.4558 5.00693L51.3411 5V13.1485ZM109.222 5.30897C108.531 5.73767 108.043 6.30293 107.743 7.01995C107.524 7.54542 107.488 8.84207 107.488 16.224V24.8164H108.644H109.8V14.9082C109.8 9.45869 109.781 5.00033 109.758 5.00066C109.735 5.00099 109.494 5.13971 109.222 5.30897ZM86.2462 9.48858C85.6208 9.65124 84.7197 10.5347 84.596 11.1066C84.4208 11.9172 84.3973 11.9357 83.5479 11.9357C82.9281 11.9357 82.7171 11.9972 82.7171 12.1778C82.7171 12.343 82.975 12.4539 83.5304 12.5276L84.3435 12.6356L84.3973 17.6939C84.4509 22.7387 84.4522 22.7542 84.8639 23.4814C85.402 24.4323 86.2495 24.8726 87.6997 24.9548C88.623 25.0073 88.9558 24.9469 89.7516 24.5826C90.3814 24.2943 90.6461 24.0923 90.5373 23.9835C90.4283 23.8745 90.1283 23.9055 89.6469 24.0754C88.3877 24.5197 87.3404 24.0315 87.0113 22.847C86.9201 22.5189 86.847 20.1212 86.8465 17.4478L86.8455 12.6389L88.5059 12.5212C89.6546 12.4397 90.1469 12.344 90.1027 12.2109C90.0615 12.0865 89.4755 12.0016 88.4488 11.9711L86.8587 11.924L86.8108 10.6391L86.7629 9.35416L86.2462 9.48858ZM73.0102 11.9357C71.9667 12.1567 70.6413 12.931 70.2126 13.5703C69.6843 14.3581 69.6975 15.4447 70.2418 15.989C71.3084 17.0558 73.2909 15.827 72.4013 14.6508C72.0161 14.1415 72.099 13.4824 72.6219 12.8972C73.0455 12.4231 73.2097 12.3598 74.1744 12.2984C75.5255 12.2123 76.3296 12.4705 76.8106 13.1449C77.1381 13.604 77.1924 13.9129 77.2436 15.61L77.3024 17.5504H75.6682C72.9468 17.5504 70.6613 18.3579 69.7818 19.6303C68.8312 21.0055 69.057 23.3536 70.2227 24.2185C72.0917 25.6049 75.4674 25.0204 76.7969 23.0803C77.1962 22.4974 77.4327 22.4741 77.4327 23.0179C77.4327 24.4508 79.7374 25.5062 81.2069 24.7462C81.8688 24.4041 82.3252 23.3302 81.8088 23.3302C81.6726 23.3302 81.5611 23.4364 81.5611 23.5662C81.5611 23.9278 81.0868 24.321 80.6504 24.321C79.8148 24.321 79.7446 23.9432 79.7446 19.4427C79.7446 14.8304 79.6262 14.0701 78.7604 13.1242C77.9805 12.2723 76.9358 11.8936 75.2055 11.836C74.3869 11.8086 73.3991 11.8535 73.0102 11.9357ZM96.506 11.8727C94.5997 12.3593 93.46 13.1366 93.1136 14.1867C92.8662 14.9363 93.0388 15.8231 93.4942 16.1419C94.2357 16.6613 95.6098 16.337 95.8033 15.5972C95.8483 15.4256 95.7444 14.9787 95.5728 14.6042C95.2904 13.9884 95.2833 13.8688 95.4987 13.3533C95.8104 12.6072 96.4999 12.266 97.695 12.2663C99.761 12.2668 100.385 13.0362 100.513 15.7426L100.599 17.5504H98.9504C95.9411 17.5504 93.6105 18.4385 92.7904 19.8976C92.4902 20.4319 92.3931 20.8594 92.3863 21.6765C92.3741 23.1728 92.787 23.9235 93.9624 24.5428C94.7764 24.9713 94.9706 25.0065 96.1757 24.9427C97.8144 24.856 98.8982 24.3487 99.8718 23.2129C100.51 22.4683 100.55 22.4472 100.551 22.8516C100.552 23.4522 101.194 24.3478 101.876 24.7016C102.297 24.9196 102.712 24.9829 103.425 24.937C104.24 24.8846 104.463 24.8002 104.788 24.4234C105.175 23.9729 105.313 23.3302 105.022 23.3302C104.937 23.3302 104.82 23.4788 104.763 23.6606C104.515 24.4406 103.312 24.487 103.023 23.7277C102.935 23.4973 102.864 21.4296 102.864 19.1331C102.864 16.4504 102.797 14.7568 102.676 14.3961C102.12 12.7373 100.728 11.9161 98.3369 11.8377C97.5115 11.8104 96.6877 11.8263 96.506 11.8727ZM77.2639 19.6559C77.26 21.4491 77.0103 22.2314 76.1765 23.0643C75.2663 23.9736 73.8999 24.244 72.7157 23.7493C71.2396 23.1325 71.0986 20.4167 72.4713 19.0439C73.2453 18.2699 73.8667 18.0833 75.7401 18.0626L77.2676 18.0458L77.2639 19.6559ZM100.548 19.3256C100.543 20.9598 100.358 21.7363 99.776 22.5748C99.1176 23.5231 98.0722 24.0309 96.9534 23.9461C95.4234 23.83 94.7785 23.0813 94.7745 21.4158C94.7711 19.9799 95.2647 19.1022 96.413 18.5022C97.1956 18.0935 97.4572 18.0458 98.9193 18.0458H100.552L100.548 19.3256Z" fill="black"/>
</svg>
